<svg xmlns="http://www.w3.org/2000/svg" width="20.509" height="20.509" viewBox="0 0 20.509 20.509">
  <path id="comment-edit" d="M12.332,16.305h8.075V14.767H13.87Zm-4.23,0h2.025l6.46-6.383a.558.558,0,0,0,0-.769l-1.41-1.282a.465.465,0,0,0-.641,0L8.1,14.408ZM4,24.509V5.538a1.49,1.49,0,0,1,.461-1.064A1.457,1.457,0,0,1,5.538,4H22.971a1.471,1.471,0,0,1,1.064.474,1.471,1.471,0,0,1,.474,1.064V18.869a1.627,1.627,0,0,1-1.538,1.538H8.1Zm1.538-3.717,1.923-1.923h15.51V5.538H5.538Zm0-15.254h0V18.869h0V5.538Z" transform="translate(-4 -4)" fill="#151515"/>
</svg>
