<svg xmlns="http://www.w3.org/2000/svg" width="12.381" height="12.939" viewBox="0 0 12.381 12.939">
  <path id="config" d="M12.444,19.539l-.279-2.063a5,5,0,0,1-.948-.418,4.271,4.271,0,0,1-.874-.623l-1.9.855-1.1-1.952,1.673-1.246q-.037-.242-.065-.5a4.714,4.714,0,0,1-.028-.5,4.557,4.557,0,0,1,.028-.483q.028-.26.065-.558L7.35,10.783l1.1-1.9,1.878.818a6.666,6.666,0,0,1,.892-.613,4.262,4.262,0,0,1,.929-.409l.3-2.082h2.194l.279,2.082a6.41,6.41,0,0,1,.929.428,5.192,5.192,0,0,1,.837.595l1.971-.818,1.078,1.9-1.747,1.3a2.89,2.89,0,0,1,.093.521q.019.242.019.465a3.913,3.913,0,0,1-.028.446q-.028.242-.084.558l1.729,1.264-1.1,1.952-1.933-.874a6.616,6.616,0,0,1-.864.641,3.521,3.521,0,0,1-.9.4l-.279,2.082Zm1.041-4.889a1.58,1.58,0,1,0-1.115-2.7,1.593,1.593,0,0,0,0,2.249A1.537,1.537,0,0,0,13.485,14.649Z" transform="translate(-7.35 -6.6)" fill="#151515"/>
</svg>
