<svg xmlns="http://www.w3.org/2000/svg" width="19" height="19" viewBox="0 0 19 19">
  <g id="edit" transform="translate(-28 -581)">
    <path id="edit_FILL1_wght500_GRAD200_opsz40" d="M4.083,15.549V12.916l8.91-8.91a1.183,1.183,0,0,1,.888-.36,1.29,1.29,0,0,1,.9.375l.827.827a1.2,1.2,0,0,1,.375.9,1.229,1.229,0,0,1-.375.88L6.7,15.549ZM13.8,6.608l.888-.873-.827-.827-.873.888Z" transform="translate(27.465 580.854)" fill="#151515"/>
    <g id="edit-2" data-name="edit" transform="translate(28 581)" fill="none" stroke="#151515" stroke-width="1">
      <rect width="19" height="19" rx="2" stroke="none"/>
      <rect x="0.5" y="0.5" width="18" height="18" rx="1.5" fill="none"/>
    </g>
  </g>
</svg>
