<svg xmlns="http://www.w3.org/2000/svg" width="15.442" height="14.148" viewBox="0 0 15.442 14.148">
  <path id="favorite_FILL1_wght400_GRAD0_opsz40" d="M11.054,18.565l-.907-.811a65.457,65.457,0,0,1-4.961-4.912A6.465,6.465,0,0,1,3.333,8.547a4.055,4.055,0,0,1,4.111-4.13,4.384,4.384,0,0,1,1.95.463,4.575,4.575,0,0,1,1.66,1.428A5.221,5.221,0,0,1,12.733,4.88a4.185,4.185,0,0,1,1.93-.463,4.055,4.055,0,0,1,4.111,4.13,6.465,6.465,0,0,1-1.853,4.295,65.457,65.457,0,0,1-4.961,4.912Z" transform="translate(-3.333 -4.417)" fill="#b4b4b4"/>
</svg>
