<svg xmlns="http://www.w3.org/2000/svg" width="15.863" height="14.534" viewBox="0 0 15.863 14.534">
  <path id="favorite_FILL1_wght400_GRAD0_opsz40" d="M11.265,18.951l-.932-.833a67.245,67.245,0,0,1-5.1-5.046,6.642,6.642,0,0,1-1.9-4.412A4.165,4.165,0,0,1,7.557,4.417a4.5,4.5,0,0,1,2,.476A4.7,4.7,0,0,1,11.265,6.36,5.364,5.364,0,0,1,12.99,4.893a4.3,4.3,0,0,1,1.983-.476A4.165,4.165,0,0,1,19.2,8.66a6.642,6.642,0,0,1-1.9,4.412,67.245,67.245,0,0,1-5.1,5.046Z" transform="translate(-3.333 -4.417)" fill="#fff"/>
</svg>
