<svg xmlns="http://www.w3.org/2000/svg" width="27" height="28" viewBox="0 0 27 28">
  <g id="instagram" transform="translate(-0.334 0.16)">
    <g id="_6-twitter" data-name="6-twitter" transform="translate(0 0)">
      <rect id="Rectangle_1283" data-name="Rectangle 1283" width="27" height="28" rx="11.2" transform="translate(27.334 27.84) rotate(180)" fill="#151515"/>
    </g>
    <g id="instagram_f_icon-icons.com_65485" transform="translate(4.887 5.505)">
      <path id="Path_872" data-name="Path 872" d="M26.19,17.421c0,1.2-.024,2.4.007,3.6a4.765,4.765,0,0,1-2.981,4.494,5.391,5.391,0,0,1-2.14.448c-2.319,0-4.642.034-6.962-.01A5.076,5.076,0,0,1,9.9,23.748a4.3,4.3,0,0,1-.8-2.554v-7.41a4.637,4.637,0,0,1,2.726-4.342,5.238,5.238,0,0,1,2.44-.569c2.25,0,4.5-.014,6.755.007a5.181,5.181,0,0,1,4.28,2.088,4.313,4.313,0,0,1,.889,2.681Zm-15.819,0v3.791a2.962,2.962,0,0,0,.424,1.575,3.811,3.811,0,0,0,3.371,1.9c2.312.034,4.628.014,6.944.007a3.767,3.767,0,0,0,1.634-.362,3.447,3.447,0,0,0,2.175-3.333c-.014-2.447,0-4.894,0-7.341a3.11,3.11,0,0,0-.607-1.885,3.853,3.853,0,0,0-3.2-1.613c-2.309-.028-4.618-.01-6.927-.007a4.069,4.069,0,0,0-1.43.272,3.531,3.531,0,0,0-2.392,3.429C10.4,15.043,10.372,16.232,10.372,17.421Z" transform="translate(-9.1 -8.869)" fill="#fff"/>
      <path id="Path_873" data-name="Path 873" d="M145.018,140.926a3.964,3.964,0,1,1,4.012-3.967A3.992,3.992,0,0,1,145.018,140.926Zm0-1.275a2.69,2.69,0,1,0-2.747-2.692A2.715,2.715,0,0,0,145.018,139.651Z" transform="translate(-136.454 -128.722)" fill="#fff"/>
      <path id="Path_874" data-name="Path 874" d="M363.94,98a.88.88,0,1,1-.841.886A.865.865,0,0,1,363.94,98Z" transform="translate(-350.899 -94.928)" fill="#fff"/>
    </g>
  </g>
</svg>
