<svg xmlns="http://www.w3.org/2000/svg" width="19.453" height="24.317" viewBox="0 0 19.453 24.317">
  <path id="notifications_FILL0_wght400_GRAD0_opsz40" d="M6.667,24V21.966H9.19V12.938a7.272,7.272,0,0,1,1.5-4.529,6.639,6.639,0,0,1,3.966-2.523V5a1.59,1.59,0,0,1,.5-1.185,1.8,1.8,0,0,1,2.463,0A1.59,1.59,0,0,1,18.126,5v.881a6.7,6.7,0,0,1,3.982,2.523,7.224,7.224,0,0,1,1.52,4.529v9.027H26.12V24Zm9.726-9.027Zm0,12.675a2.357,2.357,0,0,1-1.7-.714,2.319,2.319,0,0,1-.729-1.718h4.863a2.438,2.438,0,0,1-2.431,2.432Zm-5.2-5.684h10.4V12.938a5.085,5.085,0,0,0-1.5-3.693A4.933,4.933,0,0,0,16.424,7.71a5.021,5.021,0,0,0-3.709,1.536,5.06,5.06,0,0,0-1.52,3.693Z" transform="translate(-6.667 -3.333)" fill="#fff" />
</svg>