<svg xmlns="http://www.w3.org/2000/svg" width="21.867" height="25.616" viewBox="0 0 21.867 25.616">
  <path id="reload" d="M4.125,13.908a10.121,10.121,0,0,1,.73-2.962A12.265,12.265,0,0,1,6.386,8.27l1.889,1.774a9.7,9.7,0,0,0-1.016,1.875,8.373,8.373,0,0,0-.53,1.989ZM13.8,26.158a11.968,11.968,0,0,1-2.991-.773A10.735,10.735,0,0,1,8.161,23.84l1.832-1.831a7.364,7.364,0,0,0,1.817,1.03,8.876,8.876,0,0,0,1.989.515ZM6.386,22.066a11.086,11.086,0,0,1-1.517-2.676A11.556,11.556,0,0,1,4.125,16.4h2.6a8.3,8.3,0,0,0,1.517,3.835Zm9.875,4.093v-2.6A8.658,8.658,0,0,0,21.4,20.692a8.106,8.106,0,0,0,2.046-5.552A8.165,8.165,0,0,0,21.1,9.229a8.067,8.067,0,0,0-5.81-2.5h-.315l1.8,1.8-1.832,1.86L10.021,5.465,14.944.542l1.832,1.831-1.8,1.8h.315a10.439,10.439,0,0,1,7.6,3.22,10.629,10.629,0,0,1,3.106,7.742,10.646,10.646,0,0,1-2.733,7.313A11.246,11.246,0,0,1,16.261,26.158Z" transform="translate(-4.125 -0.542)" fill="#b4b4b4"/>
</svg>
