<svg xmlns="http://www.w3.org/2000/svg" width="28" height="28" viewBox="0 0 28 28">
  <g id="twitter" transform="translate(0 0.16)">
    <g id="_6-twitter" data-name="6-twitter" transform="translate(0 0)">
      <rect id="Rectangle_1283" data-name="Rectangle 1283" width="28" height="28" rx="11.2" transform="translate(28 27.84) rotate(180)" fill="#151515"/>
      <path id="Path_871" data-name="Path 871" d="M27.158,17.6a3.445,3.445,0,0,0,1.723-2.067,4.677,4.677,0,0,1-2.153.917,3.445,3.445,0,0,0-5.956,3.217h-.159a10.1,10.1,0,0,1-7.235-3.79A3.252,3.252,0,0,0,14.412,20.7s-1.378,0-1.723-.345c0,0-.345,2.067,2.756,3.445a1.662,1.662,0,0,1-1.378,0c0,1.331,1.387,2.412,3.1,2.412,0,.952-2.312,1.723-5.168,1.723,4.479,3.1,15.158,2.412,15.847-9.3l1.723-1.723Z" transform="translate(-6.832 -8.363)" fill="#fff"/>
    </g>
  </g>
</svg>
