<svg xmlns="http://www.w3.org/2000/svg" width="208.248" height="126.772" viewBox="0 0 208.248 126.772">
  <g id="Group_1407" data-name="Group 1407" transform="translate(-2357.064 -538.798)">
    <path id="Path_825" data-name="Path 825" d="M165.733,19.505H81.75c2.094,15.895,24.6,23.876,54.484,23.876h64.992c30.064,0,57.844-7.982,70.394-23.876H165.733Z" transform="translate(2275.484 622.189)" fill="#0082ff"/>
    <path id="Path_826" data-name="Path 826" d="M82.949,41.446a22.21,22.21,0,0,0-1.06,9.949h83.983c-13.932,0-22.563-8.62-18.923-19.455l6.568-19.893H92.561Z" transform="translate(2275.347 590.304)" fill="#ff896c"/>
    <path id="Path_827" data-name="Path 827" d="M133.586,31.5l-.29.443c-3.418,10.83-17.546,19.45-31.478,19.45h84a32.457,32.457,0,0,0,5.492-9.944l6.241-19.229a22.042,22.042,0,0,0,1.023-10.171H114.663c13.922,0,22.309,8.841,18.923,19.45" transform="translate(2361.283 590.304)" fill="#eb3600"/>
    <path id="Path_828" data-name="Path 828" d="M176.815,23.876H258.6c6.409,0,13.41-5.3,15.742-11.938C276.461,5.307,272.847,0,266.216,0H163.21C127.4,0,94.736,11.273,87.324,33.825l-2.094,6.41h61.463c4.953-9.285,17.519-16.359,30.122-16.359" transform="translate(2290.363 538.798)" fill="#3223b3"/>
    <path id="Path_829" data-name="Path 829" d="M177.4,30.944l7.349-23.317H91.407L83.784,30.944Z" transform="translate(2284.183 571.406)" fill="#e04ea0"/>
    <path id="Path_830" data-name="Path 830" d="M199.725,30.944C197.182,15.413,174.8,7.627,145.088,7.627h-36.21L101.53,30.944Z" transform="translate(2360.051 571.407)" fill="#00ad00"/>
  </g>
</svg>
