<svg xmlns="http://www.w3.org/2000/svg" width="54.286" height="33.047" viewBox="0 0 54.286 33.047">
  <g id="number-6-white" transform="translate(-2357.064 -538.798)">
    <path id="Path_825" data-name="Path 825" d="M103.643,19.505H81.75c.546,4.143,6.414,6.224,14.2,6.224h16.942c7.837,0,15.079-2.081,18.35-6.224h-27.6Z" transform="translate(2275.359 546.116)" fill="#fff"/>
    <path id="Path_826" data-name="Path 826" d="M82.039,19.711a5.79,5.79,0,0,0-.276,2.594h21.893c-3.632,0-5.882-2.247-4.933-5.072l1.712-5.186H84.544Z" transform="translate(2275.347 543.318)" fill="#fff"/>
    <path id="Path_827" data-name="Path 827" d="M110.1,17.117l-.076.116c-.891,2.823-4.574,5.07-8.206,5.07h21.9a8.461,8.461,0,0,0,1.432-2.592l1.627-5.013a5.746,5.746,0,0,0,.267-2.651H105.167c3.629,0,5.816,2.3,4.933,5.07" transform="translate(2282.888 543.318)" fill="#fff"/>
    <path id="Path_828" data-name="Path 828" d="M109.1,6.224h21.321a4.751,4.751,0,0,0,4.1-3.112A2.189,2.189,0,0,0,132.41,0H105.558c-9.335,0-17.85,2.939-19.782,8.818l-.546,1.671h16.022c1.291-2.42,4.567-4.264,7.852-4.264" transform="translate(2276.664 538.798)" fill="#fff"/>
    <path id="Path_829" data-name="Path 829" d="M108.187,13.705,110.1,7.627H85.772l-1.987,6.078Z" transform="translate(2276.122 541.66)" fill="#fff"/>
    <path id="Path_830" data-name="Path 830" d="M127.128,13.705c-.663-4.049-6.5-6.078-14.243-6.078h-9.439l-1.916,6.078Z" transform="translate(2282.78 541.66)" fill="#fff"/>
  </g>
</svg>
