<svg id="pickup" xmlns="http://www.w3.org/2000/svg" width="261.735" height="41.282" viewBox="0 0 261.735 41.282">
  <g id="Group_1675" data-name="Group 1675" transform="translate(73.414)">
    <path id="Path_1152" data-name="Path 1152" d="M22.521,97.358a46.881,46.881,0,0,1-4.982,4.931,12.285,12.285,0,0,1-1.106.712l3.428-8.23H10.468L1.762,115.75c-2.171,5.293-2.337,9.447-.492,12.344,1.866,2.93,5.694,4.417,11.378,4.417H19.66L22.844,125H14.4c-4.11,0-4.932-1-5.084-1.3-.179-.354-.608-1.884,1.363-6.687l2.351-5.733c7.438-1.416,14.627-4.4,19.327-10.57,1.978-2.6,2.47-3.245,2.546-3.354Z" transform="translate(0 -91.229)" fill="#fff"/>
    <path id="Path_1153" data-name="Path 1153" d="M38.455,96.214a4.417,4.417,0,0,1-1.6,3.044,4.955,4.955,0,0,1-3.351,1.25A4.184,4.184,0,0,1,30.4,99.235a3.683,3.683,0,0,1-1.1-3.021,4.384,4.384,0,0,1,1.618-3.043,4.988,4.988,0,0,1,3.327-1.251,4.206,4.206,0,0,1,3.137,1.251,3.7,3.7,0,0,1,1.075,3.043m-4.438-1.651a1.806,1.806,0,0,0-1.25.495,1.73,1.73,0,0,0-.6,1.157,1.444,1.444,0,0,0,.4,1.156,1.516,1.516,0,0,0,1.165.5,1.863,1.863,0,0,0,1.3-.5,1.726,1.726,0,0,0,.6-1.156,1.456,1.456,0,0,0-.405-1.157,1.585,1.585,0,0,0-1.215-.495" transform="translate(7.101 -91.92)" fill="#fff"/>
    <path id="Path_1164" data-name="Path 1164" d="M81.231,96.781H55.845l-.338.864a56.42,56.42,0,0,1-3.5,7.623,28.889,28.889,0,0,1-3.652,5.053l-.605.618,1.959,5.258,1.352-.666a26.955,26.955,0,0,0,7.665-5.965,35.328,35.328,0,0,0,4.447-5.779H67.8l-1.226,3.255c-2.9,7.695-9.883,14.593-17.869,18.132l-.948.419.87,5.863,1.51-.454a51.159,51.159,0,0,0,17.114-9.741,33.775,33.775,0,0,0,9.646-13.619Z" transform="translate(11.581 -90.741)" fill="#fff"/>
    <path id="Path_1170" data-name="Path 1170" d="M35.952,116.841l.267-.957c.782-2.791,2.005-6.471,3.279-9.844l.695-1.849-7.8.025L28.933,117.1Z" transform="translate(7.016 -88.944)" fill="#fff"/>
    <path id="Path_1171" data-name="Path 1171" d="M32.934,104.191l-7.8.025L21.674,117.1l7.019-.261.267-.957c.79-2.813,2.014-6.495,3.279-9.846Z" transform="translate(5.256 -88.944)" fill="#fff"/>
    <path id="Path_1172" data-name="Path 1172" d="M43.908,105.168c0,.015-.476,1.564-2.141,5.682a21.851,21.851,0,0,1-5.974,8.336,24.58,24.58,0,0,1-6.739,4.2l-.955.425.989,6.178,1.5-.467a29.15,29.15,0,0,0,19.132-17.8l2.8-7.461-8.32-.065Z" transform="translate(6.814 -88.944)" fill="#fff"/>
    <path id="Path_1173" data-name="Path 1173" d="M109.669,116.841l.267-.957c.782-2.791,2.005-6.471,3.279-9.844l.695-1.849-7.8.025L102.65,117.1Z" transform="translate(24.894 -88.944)" fill="#fff"/>
    <path id="Path_1174" data-name="Path 1174" d="M106.651,104.191l-7.8.025L95.391,117.1l7.019-.261.267-.957c.79-2.813,2.014-6.495,3.279-9.846Z" transform="translate(23.133 -88.944)" fill="#fff"/>
    <path id="Path_1175" data-name="Path 1175" d="M117.625,105.168c0,.015-.476,1.564-2.141,5.682a21.851,21.851,0,0,1-5.974,8.336,24.582,24.582,0,0,1-6.739,4.2l-.955.425.989,6.178,1.5-.467a29.15,29.15,0,0,0,19.132-17.8l2.8-7.461-8.32-.065Z" transform="translate(24.691 -88.944)" fill="#fff"/>
    <path id="Path_1187" data-name="Path 1187" d="M90.429,115.114a22.811,22.811,0,0,0,8.5-6.065c1.856-2.126,5.074-8.258,6.587-12.27H77.474l-2.8,6.953H92.386a22.776,22.776,0,0,1-1.338,2.645c-.611,1.01-1.469,2.835-2.814,3.771Z" transform="translate(18.109 -90.741)" fill="#fff"/>
    <path id="Path_1188" data-name="Path 1188" d="M79.459,105.009l-3.306,8.132A30.266,30.266,0,0,1,72.2,120.5,15.2,15.2,0,0,1,67.835,124c-.024.015-.044.032-.067.048l.629,5.734a2.53,2.53,0,0,0,.855-.158,24.24,24.24,0,0,0,9.631-6.042,29.59,29.59,0,0,0,6.847-10.047l3.606-8.53Z" transform="translate(16.434 -88.746)" fill="#fff"/>
    <path id="Path_1189" data-name="Path 1189" d="M153.342,96.214a4.417,4.417,0,0,1-1.6,3.044,4.955,4.955,0,0,1-3.351,1.25,4.184,4.184,0,0,1-3.111-1.274,3.683,3.683,0,0,1-1.1-3.021,4.384,4.384,0,0,1,1.618-3.043,4.988,4.988,0,0,1,3.327-1.251,4.206,4.206,0,0,1,3.137,1.251,3.7,3.7,0,0,1,1.075,3.043M148.9,94.563a1.806,1.806,0,0,0-1.25.495,1.73,1.73,0,0,0-.6,1.157,1.444,1.444,0,0,0,.4,1.156,1.516,1.516,0,0,0,1.165.5,1.863,1.863,0,0,0,1.3-.5,1.725,1.725,0,0,0,.6-1.156,1.456,1.456,0,0,0-.405-1.157,1.585,1.585,0,0,0-1.215-.495" transform="translate(34.962 -91.92)" fill="#fff"/>
    <path id="Path_1190" data-name="Path 1190" d="M123.214,96.592l-2.443,6.675h17.246l-.3.825c-3.813,10.315-10.535,17.813-19.941,22.282l.625,5.687.076-.022a41.526,41.526,0,0,0,18.383-11.709,47.4,47.4,0,0,0,9.892-15.928l2.909-7.809Z" transform="translate(28.561 -90.787)" fill="#fff"/>
  </g>
  <g id="Group_1681" data-name="Group 1681" transform="translate(0 5.022)">
    <path id="Path_825" data-name="Path 825" d="M104.826,19.505H81.75c.576,4.367,6.761,6.561,14.971,6.561h17.858c8.261,0,15.894-2.193,19.342-6.561H104.826Z" transform="translate(-81.703 8.768)" fill="#fff"/>
    <path id="Path_826" data-name="Path 826" d="M82.056,20.125a6.1,6.1,0,0,0-.291,2.734h23.076c-3.828,0-6.2-2.369-5.2-5.346l1.8-5.466H84.7Z" transform="translate(-81.717 5.415)" fill="#fff"/>
    <path id="Path_827" data-name="Path 827" d="M110.547,17.391l-.08.122c-.939,2.976-4.821,5.344-8.649,5.344H124.9a8.917,8.917,0,0,0,1.509-2.732l1.715-5.284a6.056,6.056,0,0,0,.281-2.795H105.348c3.825,0,6.13,2.429,5.2,5.344" transform="translate(-72.682 5.415)" fill="#fff"/>
    <path id="Path_828" data-name="Path 828" d="M110.4,6.561h22.473a5.008,5.008,0,0,0,4.325-3.28c.581-1.822-.412-3.28-2.234-3.28h-28.3C96.818,0,87.842,3.1,85.805,9.294l-.575,1.761h16.888c1.361-2.551,4.814-4.495,8.277-4.495" transform="translate(-80.139 0)" fill="#fff"/>
    <path id="Path_829" data-name="Path 829" d="M109.506,14.034l2.019-6.407H85.879l-2.095,6.407Z" transform="translate(-80.789 3.428)" fill="#fff"/>
    <path id="Path_830" data-name="Path 830" d="M128.511,14.034c-.7-4.267-6.848-6.407-15.013-6.407h-9.95l-2.019,6.407Z" transform="translate(-72.812 3.429)" fill="#fff"/>
  </g>
</svg>
