<svg id="noun_User_1335326" xmlns="http://www.w3.org/2000/svg" width="75.518" height="75.518" viewBox="0 0 75.518 75.518">
  <g id="Group_3" data-name="Group 3">
    <path id="Path_4" data-name="Path 4" d="M42.812,5.053A37.759,37.759,0,1,0,80.571,42.812,37.8,37.8,0,0,0,42.812,5.053Zm0,70.34A32.582,32.582,0,1,1,75.394,42.811,32.619,32.619,0,0,1,42.812,75.393Z" transform="translate(-5.053 -5.053)" fill="#e8e8e8"/>
    <path id="Path_5" data-name="Path 5" d="M48.611,48.092A11.718,11.718,0,1,0,36.9,36.376,11.73,11.73,0,0,0,48.611,48.092Zm0-18.261a6.542,6.542,0,1,1-6.54,6.543A6.549,6.549,0,0,1,48.611,29.832Z" transform="translate(-10.145 -8.188)" fill="#e8e8e8"/>
    <path id="Path_6" data-name="Path 6" d="M68.906,62.479c-2.388-6.157-6.98-9.5-13.649-9.927a2.579,2.579,0,0,0-1.71.5,11.595,11.595,0,0,1-14.021,0,2.6,2.6,0,0,0-1.707-.5c-6.7.435-11.307,3.811-13.681,10.034a2.588,2.588,0,1,0,4.836,1.846c1.55-4.063,4.131-6.136,8.307-6.634a16.734,16.734,0,0,0,18.515,0c4.152.492,6.725,2.541,8.281,6.554a2.589,2.589,0,0,0,4.827-1.873Z" transform="translate(-8.078 -12.648)" fill="#e8e8e8"/>
  </g>
</svg>
