<svg xmlns="http://www.w3.org/2000/svg" width="335" height="104" viewBox="0 0 335 104">
  <g id="purple-circle" transform="translate(-20 -639)">
    <text id="グランピング_RISING_SUN" data-name="グランピング・RISING SUN" transform="translate(160 697)" fill="#151515" font-size="14" font-family="YuGothicUI-Bold, Yu Gothic UI" font-weight="700" letter-spacing="-0.011em"><tspan x="0" y="0">グランピング・</tspan><tspan y="0" font-family="Montserrat-Bold, Montserrat">RISING SUN</tspan></text>
    <text id="コメント" transform="translate(214 739)" fill="#151515" font-size="10" font-family="YuGothicUI-Bold, Yu Gothic UI" font-weight="700" letter-spacing="-0.011em"><tspan x="0" y="0">コメント</tspan></text>
    <g id="Rectangle_1203" data-name="Rectangle 1203" transform="translate(325 728)" fill="none" stroke="#151515" stroke-width="1">
      <rect width="30" height="15" rx="7.5" stroke="none"/>
      <rect x="0.5" y="0.5" width="29" height="14" rx="7" fill="none"/>
    </g>
    <g id="Rectangle_1288" data-name="Rectangle 1288" transform="translate(258 728)" fill="none" stroke="#151515" stroke-width="1">
      <rect width="30" height="15" rx="7.5" stroke="none"/>
      <rect x="0.5" y="0.5" width="29" height="14" rx="7" fill="none"/>
    </g>
    <text id="_123" data-name="123" transform="translate(340 739)" fill="#151515" font-size="10" font-family="Montserrat-Bold, Montserrat" font-weight="700" letter-spacing="-0.011em"><tspan x="-7.76" y="0">123</tspan></text>
    <text id="_4" data-name="4" transform="translate(273 739)" fill="#151515" font-size="10" font-family="Montserrat-Bold, Montserrat" font-weight="700" letter-spacing="-0.011em"><tspan x="-3.445" y="0">4</tspan></text>
    <rect id="Rectangle_1202" data-name="Rectangle 1202" width="125" height="102" rx="12" transform="translate(20 639)" fill="#e3e3e3"/>
    <g id="Group_1405" data-name="Group 1405" transform="translate(181.395 650.357)">
      <path id="Path_831" data-name="Path 831" d="M5.179,33.314c.1,0,.133.052.11.158l-.666,3.111a9.334,9.334,0,0,1-1.5,3.461,5.549,5.549,0,0,1-2.4,2.066.091.091,0,0,1-.06.014.092.092,0,0,1-.08-.029A.1.1,0,0,1,.53,41.98l.1-.49A.209.209,0,0,1,.7,41.374,4.678,4.678,0,0,0,2,39.891a11.719,11.719,0,0,0,.945-2.936l.746-3.484a.171.171,0,0,1,.178-.158ZM8.95,31.226a10.182,10.182,0,0,1-1.085,3.053,7.037,7.037,0,0,1-2.372,2.2.278.278,0,0,1-.093.028.076.076,0,0,1-.066-.028c-.053-.019-.073-.062-.058-.13l.061-.287a.229.229,0,0,1,.064-.1,4.67,4.67,0,0,0,1.059-1.583,16.677,16.677,0,0,0,.686-2.26H2.412c-.106,0-.147-.054-.125-.159l.158-.735a.178.178,0,0,1,.193-.158H8.826c.1,0,.146.052.124.158" transform="translate(-0.527 -30.68)" fill="#151515"/>
      <path id="Path_832" data-name="Path 832" d="M5.179,33.314c.1,0,.133.052.11.158l-.666,3.111a9.334,9.334,0,0,1-1.5,3.461,5.549,5.549,0,0,1-2.4,2.066.091.091,0,0,1-.06.014.092.092,0,0,1-.08-.029A.1.1,0,0,1,.53,41.98l.1-.49A.209.209,0,0,1,.7,41.374,4.678,4.678,0,0,0,2,39.891a11.719,11.719,0,0,0,.945-2.936l.746-3.484a.171.171,0,0,1,.178-.158ZM8.95,31.226a10.182,10.182,0,0,1-1.085,3.053,7.037,7.037,0,0,1-2.372,2.2.278.278,0,0,1-.093.028.076.076,0,0,1-.066-.028c-.053-.019-.073-.062-.058-.13l.061-.287a.229.229,0,0,1,.064-.1,4.67,4.67,0,0,0,1.059-1.583,16.677,16.677,0,0,0,.686-2.26H2.412c-.106,0-.147-.054-.125-.159l.158-.735a.178.178,0,0,1,.193-.158H8.826C8.931,31.068,8.973,31.12,8.95,31.226Z" transform="translate(-0.527 -30.68)" fill="#151515" stroke="#000" stroke-linecap="round" stroke-linejoin="round" stroke-width="0.3"/>
      <path id="Path_833" data-name="Path 833" d="M21.018,32.932H18.672q-.326,1.525-.576,2.893h2.3c.106,0,.147.052.125.159l-.161.748a.17.17,0,0,1-.188.143H17.914q-.6,3.205-.833,5.167a.247.247,0,0,1-.068.117.165.165,0,0,1-.114.057h-.432a.106.106,0,0,1-.119-.115,31.913,31.913,0,0,1,.242-5.226H14.013c-.106,0-.148-.047-.128-.143l.161-.748a.178.178,0,0,1,.192-.159H16.7q.175-1.583.39-2.893H14.856c-.1,0-.145-.053-.123-.159l.158-.734a.18.18,0,0,1,.193-.159h2.23c.1-.48.177-.826.222-1.037a.178.178,0,0,1,.19-.158H19c.1,0,.143.053.121.158L18.9,31.88h2.347c.1,0,.145.053.123.159l-.158.734a.179.179,0,0,1-.192.159" transform="translate(-0.306 -30.686)" fill="#151515"/>
      <path id="Path_834" data-name="Path 834" d="M21.018,32.932H18.672q-.326,1.525-.576,2.893h2.3c.106,0,.147.052.125.159l-.161.748a.17.17,0,0,1-.188.143H17.914q-.6,3.205-.833,5.167a.247.247,0,0,1-.068.117.165.165,0,0,1-.114.057h-.432a.106.106,0,0,1-.119-.115,31.913,31.913,0,0,1,.242-5.226H14.013c-.106,0-.148-.047-.128-.143l.161-.748a.178.178,0,0,1,.192-.159H16.7q.175-1.583.39-2.893H14.856c-.1,0-.145-.053-.123-.159l.158-.734a.18.18,0,0,1,.193-.159h2.23c.1-.48.177-.826.222-1.037a.178.178,0,0,1,.19-.158H19c.1,0,.143.053.121.158L18.9,31.88h2.347c.1,0,.145.053.123.159l-.158.734A.179.179,0,0,1,21.018,32.932Z" transform="translate(-0.306 -30.686)" fill="#151515" stroke="#000" stroke-linecap="round" stroke-linejoin="round" stroke-width="0.3"/>
      <path id="Path_835" data-name="Path 835" d="M34.157,31.226l-.608,2.836A12.1,12.1,0,0,1,31.232,39a9.394,9.394,0,0,1-3.913,3.11.133.133,0,0,1-.133-.015.109.109,0,0,1-.051-.129l.1-.461a.188.188,0,0,1,.1-.13,8.63,8.63,0,0,0,3.828-4.562,3.641,3.641,0,0,0-2.262-.734c-.1,0-.133-.048-.112-.144l.28-1.309c.027-.125.1-.178.206-.159a3.429,3.429,0,0,1,2.24,1.309q.185-.59.354-1.382l.488-2.274H29.72a10.356,10.356,0,0,1-1.233,2.6,6.531,6.531,0,0,1-1.715,1.821.129.129,0,0,1-.143,0,.11.11,0,0,1-.074-.129l.084-.389a.961.961,0,0,1,.154-.317,9.346,9.346,0,0,0,.949-2.015,19.86,19.86,0,0,0,.729-2.462.171.171,0,0,1,.179-.158h5.383c.1,0,.147.052.125.158" transform="translate(-0.096 -30.68)" fill="#151515"/>
      <path id="Path_836" data-name="Path 836" d="M34.157,31.226l-.608,2.836A12.1,12.1,0,0,1,31.232,39a9.394,9.394,0,0,1-3.913,3.11.133.133,0,0,1-.133-.015.109.109,0,0,1-.051-.129l.1-.461a.188.188,0,0,1,.1-.13,8.63,8.63,0,0,0,3.828-4.562,3.641,3.641,0,0,0-2.262-.734c-.1,0-.133-.048-.112-.144l.28-1.309c.027-.125.1-.178.206-.159a3.429,3.429,0,0,1,2.24,1.309q.185-.59.354-1.382l.488-2.274H29.72a10.356,10.356,0,0,1-1.233,2.6,6.531,6.531,0,0,1-1.715,1.821.129.129,0,0,1-.143,0,.11.11,0,0,1-.074-.129l.084-.389a.961.961,0,0,1,.154-.317,9.346,9.346,0,0,0,.949-2.015,19.86,19.86,0,0,0,.729-2.462.171.171,0,0,1,.179-.158h5.383C34.137,31.068,34.179,31.12,34.157,31.226Z" transform="translate(-0.096 -30.68)" fill="#151515" stroke="#000" stroke-linecap="round" stroke-linejoin="round" stroke-width="0.3"/>
    </g>
    <g id="Group_1403" data-name="Group 1403" transform="translate(160 648)">
      <path id="Path_842" data-name="Path 842" d="M18.8,16.245h0a8.122,8.122,0,1,1,8.123-8.123A8.123,8.123,0,0,1,18.8,16.245" transform="translate(-10.679 0)" fill="#cc4eb3"/>
      <path id="Path_843" data-name="Path 843" d="M18.234,11.616h0a4.061,4.061,0,1,1,4.061-4.061,4.061,4.061,0,0,1-4.061,4.061" transform="translate(-10.111 0.568)" fill="#fff"/>
    </g>
    <g id="Group_1404" data-name="Group 1404" transform="translate(224.418 654.389)">
      <path id="Path_844" data-name="Path 844" d="M6.243,52.447,5.527,54.28a1.4,1.4,0,0,1-1.191.858c-.473,0-.709-.385-.519-.858l.61-1.567c.121-.3-.1-.548-.5-.548H3.317a1.02,1.02,0,0,0-.925.548L1.776,54.28a1.4,1.4,0,0,1-1.191.858c-.473,0-.708-.385-.519-.858l.717-1.834c.247-.635,1.18-.952,2.188-.952H4.8c1,0,1.693.316,1.445.952m-2.471,1.2a1.194,1.194,0,0,1-1.014.727.481.481,0,0,1-.442-.727,1.2,1.2,0,0,1,1.016-.735c.4,0,.6.331.44.735" transform="translate(0 -51.4)" fill="#151515"/>
      <path id="Path_845" data-name="Path 845" d="M12.9,54.879a.6.6,0,0,1-.756.225s-.205-.119-1.819-1.213a.549.549,0,0,1-.233-.28l-.261.671a1.409,1.409,0,0,1-1.19.858c-.473,0-.709-.385-.526-.858l.782-2a1.4,1.4,0,0,1,1.191-.859c.473,0,.707.385.518.859l-.262.671a1.834,1.834,0,0,1,.452-.279c2.467-1.095,2.766-1.214,2.766-1.214.316-.136.564-.049.587.224a.724.724,0,0,1-.483.66s-.253.106-1.571.709a.4.4,0,0,0-.229.231.189.189,0,0,0,.051.224c.863.591,1.018.71,1.018.71.184.13.2.385-.036.658" transform="translate(0.133 -51.402)" fill="#151515"/>
      <path id="Path_846" data-name="Path 846" d="M18.325,52.286l-.782,2a1.4,1.4,0,0,1-1.19.858c-.473,0-.709-.385-.519-.858l.776-2a1.41,1.41,0,0,1,1.191-.859c.473,0,.708.385.525.859" transform="translate(0.261 -51.401)" fill="#151515"/>
      <path id="Path_847" data-name="Path 847" d="M25.869,51.829a.55.55,0,0,1-.463.335H23.863l-.825,2.114a1.41,1.41,0,0,1-1.191.858c-.48,0-.708-.385-.526-.858l.826-2.114H20.6c-.18,0-.272-.147-.2-.335a.541.541,0,0,1,.465-.335h4.8c.186,0,.28.148.207.335" transform="translate(0.338 -51.4)" fill="#151515"/>
      <path id="Path_848" data-name="Path 848" d="M33.773,52.447l-.716,1.834a1.4,1.4,0,0,1-1.191.858c-.473,0-.709-.385-.519-.858l.61-1.567c.121-.3-.1-.548-.5-.548h-.609a1.02,1.02,0,0,0-.925.548l-.616,1.567a1.4,1.4,0,0,1-1.191.858c-.473,0-.708-.385-.519-.858l.717-1.834c.247-.635,1.18-.952,2.188-.952h1.829c1,0,1.693.316,1.445.952m-2.472,1.2a1.191,1.191,0,0,1-1.013.727.482.482,0,0,1-.443-.727,1.2,1.2,0,0,1,1.017-.735c.4,0,.6.331.439.735" transform="translate(0.456 -51.4)" fill="#151515"/>
    </g>
    <g id="Group_1448" data-name="Group 1448" transform="translate(-2 -223)">
      <circle id="Ellipse_304" data-name="Ellipse 304" cx="13" cy="13" r="13" transform="translate(28 868)" fill="#fff"/>
      <path id="Path_856" data-name="Path 856" d="M7.472,0,5.434,5.052,0,5.429l4.175,3.5L2.854,14.212l4.618-2.889,4.618,2.889L10.769,8.928l4.175-3.5L9.509,5.052Z" transform="translate(33.647 873.192)" fill="#fdeb9c"/>
    </g>
  </g>
</svg>
