<svg xmlns="http://www.w3.org/2000/svg" xmlns:xlink="http://www.w3.org/1999/xlink" width="302.344" height="36.315" viewBox="0 0 302.344 36.315">
  <defs>
    <clipPath id="clip-path">
      <rect id="Rectangle_1356" data-name="Rectangle 1356" width="235.893" height="36.315" fill="#151515"/>
    </clipPath>
  </defs>
  <g id="Tohoku-media" transform="translate(-650.548 -1137.09)">
    <g id="Group_1649" data-name="Group 1649" transform="translate(650.548 1135.402)">
      <g id="Group_1625" data-name="Group 1625" transform="translate(0 4.023)">
        <path id="Path_825" data-name="Path 825" d="M103.073,19.505H81.75c.532,4.036,6.247,6.062,13.833,6.062h16.5c7.633,0,14.686-2.027,17.873-6.062H103.073Z" transform="translate(-81.706 6.62)" fill="#0082ff"/>
        <path id="Path_826" data-name="Path 826" d="M82.03,19.511a5.639,5.639,0,0,0-.269,2.526h21.323c-3.537,0-5.729-2.189-4.8-4.94l1.668-5.051H84.471Z" transform="translate(-81.717 4.089)" fill="#ff896c"/>
        <path id="Path_827" data-name="Path 827" d="M109.884,16.985l-.074.113c-.868,2.75-4.455,4.938-7.992,4.938h21.329a8.24,8.24,0,0,0,1.394-2.525l1.585-4.882a5.6,5.6,0,0,0,.26-2.582H105.079c3.535,0,5.664,2.245,4.8,4.938" transform="translate(-74.896 4.089)" fill="#eb3600"/>
        <path id="Path_828" data-name="Path 828" d="M108.483,6.062h20.766a4.627,4.627,0,0,0,4-3.031A2.132,2.132,0,0,0,131.182,0H105.029C95.937,0,87.644,2.862,85.762,8.588l-.532,1.627h15.605c1.258-2.357,4.448-4.153,7.648-4.153" transform="translate(-80.526 0)" fill="#3223b3"/>
        <path id="Path_829" data-name="Path 829" d="M107.552,13.547l1.866-5.92H85.72l-1.935,5.92Z" transform="translate(-81.016 2.589)" fill="#e04ea0"/>
        <path id="Path_830" data-name="Path 830" d="M126.462,13.547c-.646-3.943-6.327-5.92-13.872-5.92H103.4l-1.866,5.92Z" transform="translate(-74.994 2.589)" fill="#00ad00"/>
      </g>
    </g>
    <g id="Group_1741" data-name="Group 1741" transform="translate(717 1137.091)">
      <g id="Group_1740" data-name="Group 1740" transform="translate(0 0)" clip-path="url(#clip-path)">
        <path id="Path_1220" data-name="Path 1220" d="M165.047,1.555l-2.684,6.66h16.966a22.11,22.11,0,0,1-1.282,2.534c-.586.967-1.407,2.715-2.7,3.611l2.1,4.755a21.859,21.859,0,0,0,8.142-5.807c1.777-2.037,4.859-7.91,6.306-11.752Z" transform="translate(43.99 0.422)" fill="#151515"/>
        <path id="Path_1221" data-name="Path 1221" d="M163.929,17.049a29.059,29.059,0,0,1-3.785,7.045,14.545,14.545,0,0,1-4.181,3.358c-.023.014-.042.032-.065.046l.6,5.492a2.43,2.43,0,0,0,.818-.15,23.206,23.206,0,0,0,9.222-5.788,28.329,28.329,0,0,0,6.559-9.622l3.453-8.168h-9.46Z" transform="translate(42.239 2.51)" fill="#151515"/>
        <path id="Path_1222" data-name="Path 1222" d="M27.141,13.6a20.254,20.254,0,0,0-7.792-2.954l3.487-9.049L12.7,1.555,0,35.019H10.215L16.945,17a6.269,6.269,0,0,1,2.341,1.671A5.864,5.864,0,0,1,20.72,22l.122,1.315L32.3,22.67l-.17-1.451a10.506,10.506,0,0,0-4.99-7.623" transform="translate(0 0.422)" fill="#151515"/>
        <path id="Path_1223" data-name="Path 1223" d="M75.284,3.759l.759-2.18H65.922l-.929,2.18H54.6l-2.487,7.064H62.294l-9.078,24.15H63.6l9.081-24.15H83.083l3.073-7.064Z" transform="translate(14.118 0.428)" fill="#151515"/>
        <path id="Path_1224" data-name="Path 1224" d="M62.093,10.17H53.475l-1.8,4.879a42.531,42.531,0,0,1-3.845,8.267,8.678,8.678,0,0,1-2.581,2.5l-.641.4v5.606l1.837-.661c5.968-2.148,10.539-7.35,13.594-15.469Z" transform="translate(12.086 2.756)" fill="#151515"/>
        <path id="Path_1225" data-name="Path 1225" d="M68.213,14.294c-3.224,8.585-2.351,14.215,2.6,16.737l1.107.564L74.864,27l-.679-.777a2.031,2.031,0,0,1-.422-1.641c.072-1.041.539-3.293,2.342-8.1l2.523-6.31h-8.74Z" transform="translate(17.966 2.756)" fill="#151515"/>
        <path id="Path_1226" data-name="Path 1226" d="M110.6,1.618H85.551l-.342.873a57.913,57.913,0,0,1-3.771,7.689,29.163,29.163,0,0,1-3.682,5.1l-.613.623,1.981,5.307,1.361-.672a27.175,27.175,0,0,0,7.735-6.019A36.149,36.149,0,0,0,92.7,8.684H97.36l-1.234,3.287C93.2,19.733,87.638,25.477,79.587,29.045l-.975.431.986,5.882,1.493-.454a42.445,42.445,0,0,0,15.716-8.592,34.107,34.107,0,0,0,9.744-13.767Z" transform="translate(20.901 0.439)" fill="#151515"/>
        <path id="Path_1227" data-name="Path 1227" d="M57.579,3.806H49.235l.811-2.217L39.139,1.564l-.813,2.242H30.179L25.494,16.682H35.823l2.095-5.748h6.712l-.775,2.134a29.774,29.774,0,0,1-5.736,9.978,27.638,27.638,0,0,1-9.21,6.408l-.935.419.811,6.018,1.547-.475c11.78-3.613,19.744-10.948,23.676-21.8Z" transform="translate(6.907 0.424)" fill="#151515"/>
        <path id="Path_1228" data-name="Path 1228" d="M155.64,8.183a18.041,18.041,0,0,1-5.37,6.36,19.852,19.852,0,0,1-7.936,3.529c-.052.011-.1.024-.154.038a3.024,3.024,0,0,0-.413.169l.618,5.624a2.62,2.62,0,0,0,.525-.033,42.207,42.207,0,0,0,4.568-1.015l-3.706,10.427h8.641l5.128-15.319c2.675-2.065,6.141-6.868,7.732-9.78Z" transform="translate(38.41 2.218)" fill="#151515"/>
        <path id="Path_1229" data-name="Path 1229" d="M145.9,8.074l2.687-6.519H128.215l-2.669,6.478a2.621,2.621,0,0,0,.376.041Z" transform="translate(34.015 0.422)" fill="#151515"/>
        <path id="Path_1230" data-name="Path 1230" d="M149.9,9.2H123.372L120.7,15.68a2.639,2.639,0,0,0,.377.042h10.2l-.82,2.158a28.978,28.978,0,0,1-3.785,7.044,14.547,14.547,0,0,1-4.181,3.359c-.023.014-.042.031-.064.046l.6,5.492a2.431,2.431,0,0,0,.818-.15,23.233,23.233,0,0,0,9.223-5.788,28.325,28.325,0,0,0,6.558-9.622l1.035-2.538h6.54Z" transform="translate(32.703 2.494)" fill="#151515"/>
        <path id="Path_1231" data-name="Path 1231" d="M147.215,5.334a3.073,3.073,0,0,0,2.082-.777,2.741,2.741,0,0,0,.99-1.89,2.3,2.3,0,0,0-.667-1.89A2.607,2.607,0,0,0,147.672,0a3.1,3.1,0,0,0-2.067.778,2.719,2.719,0,0,0-1,1.89,2.288,2.288,0,0,0,.682,1.876,2.6,2.6,0,0,0,1.932.791" transform="translate(39.175 0.001)" fill="#151515"/>
        <path id="Path_1232" data-name="Path 1232" d="M146.846,6.709a2.287,2.287,0,0,0,.683,1.876,2.6,2.6,0,0,0,1.932.791,3.073,3.073,0,0,0,2.082-.777,2.735,2.735,0,0,0,.991-1.89,2.3,2.3,0,0,0-.667-1.89,2.617,2.617,0,0,0-1.95-.778,3.1,3.1,0,0,0-2.065.778,2.721,2.721,0,0,0-1.005,1.89" transform="translate(39.784 1.095)" fill="#151515"/>
        <path id="Path_1233" data-name="Path 1233" d="M125.271,6.425l1.544-5H117.4l-2.856,7.753a42.629,42.629,0,0,0-7.1-3.055l-3.829,5.794a32.422,32.422,0,0,1,7.037,5.765A28.893,28.893,0,0,1,98.14,28.82l.918,5.876a38.642,38.642,0,0,0,16.049-10.34,40.033,40.033,0,0,0,3.5,6.386l7.618-10.5c-2.4-2.832-3.327-4.1-4.483-5.347a52.264,52.264,0,0,0,3.528-8.466" transform="translate(26.59 0.386)" fill="#151515"/>
      </g>
    </g>
  </g>
</svg>
