<svg id="goods" xmlns="http://www.w3.org/2000/svg" width="171.775" height="39.856" viewBox="0 0 171.775 39.856">
  <g id="Group_1674" data-name="Group 1674" transform="translate(72.68)">
    <path id="Path_1154" data-name="Path 1154" d="M86.464,62.118a2.677,2.677,0,0,1-.968,1.848,3.006,3.006,0,0,1-2.035.759,2.536,2.536,0,0,1-1.889-.773,2.236,2.236,0,0,1-.668-1.834,2.66,2.66,0,0,1,.983-1.848,3.03,3.03,0,0,1,2.02-.759,2.554,2.554,0,0,1,1.9.759,2.248,2.248,0,0,1,.652,1.848" transform="translate(-47.544 -59.511)" fill="#1e1e1e"/>
    <path id="Path_1155" data-name="Path 1155" d="M88.71,66.159a2.677,2.677,0,0,1-.968,1.848,3.007,3.007,0,0,1-2.035.759,2.536,2.536,0,0,1-1.889-.773,2.237,2.237,0,0,1-.668-1.834,2.66,2.66,0,0,1,.983-1.848,3.03,3.03,0,0,1,2.02-.759,2.555,2.555,0,0,1,1.9.759,2.248,2.248,0,0,1,.652,1.848" transform="translate(-46.999 -58.531)" fill="#1e1e1e"/>
    <path id="Path_1156" data-name="Path 1156" d="M132.64,62.118a2.677,2.677,0,0,1-.968,1.848,3.007,3.007,0,0,1-2.035.759,2.536,2.536,0,0,1-1.889-.773,2.236,2.236,0,0,1-.668-1.834,2.66,2.66,0,0,1,.983-1.848,3.03,3.03,0,0,1,2.02-.759,2.555,2.555,0,0,1,1.9.759,2.248,2.248,0,0,1,.652,1.848" transform="translate(-36.346 -59.511)" fill="#1e1e1e"/>
    <path id="Path_1157" data-name="Path 1157" d="M134.885,66.159a2.677,2.677,0,0,1-.968,1.848,3.006,3.006,0,0,1-2.035.759,2.536,2.536,0,0,1-1.889-.773,2.237,2.237,0,0,1-.669-1.834,2.66,2.66,0,0,1,.983-1.848,3.03,3.03,0,0,1,2.02-.759,2.555,2.555,0,0,1,1.9.759,2.248,2.248,0,0,1,.652,1.848" transform="translate(-35.801 -58.531)" fill="#1e1e1e"/>
    <path id="Path_1163" data-name="Path 1163" d="M87.529,63.659H62.143l-.338.864a56.418,56.418,0,0,1-3.5,7.623A28.892,28.892,0,0,1,54.658,77.2l-.605.618,1.959,5.258,1.352-.666a26.955,26.955,0,0,0,7.665-5.965,35.324,35.324,0,0,0,4.447-5.779H74.1L72.87,73.92c-2.9,7.695-8.411,13.387-16.4,16.927l-.947.417.87,5.863,1.51-.453a42.068,42.068,0,0,0,15.642-8.535A33.774,33.774,0,0,0,83.192,74.52Z" transform="translate(-54.053 -58.505)" fill="#1e1e1e"/>
    <path id="Path_1166" data-name="Path 1166" d="M108.4,70.634h12.7c-3.961,9.05-11.107,15.821-21.266,20.144l-.946.4.753,5.989,1.562-.5a55.516,55.516,0,0,0,17.1-8.756,19.207,19.207,0,0,1,2.433,6.121l.542,2.271,8.176-7.613-.435-.9a21.386,21.386,0,0,0-4.316-5.948,41.492,41.492,0,0,0,7.4-12.515l2.06-5.7H110.087Z" transform="translate(-43.18 -58.512)" fill="#1e1e1e"/>
    <path id="Path_1167" data-name="Path 1167" d="M91.737,83.479,92,82.522c.782-2.791,2.005-6.471,3.279-9.844l.695-1.849-7.8.025L84.718,83.74Z" transform="translate(-46.617 -56.766)" fill="#1e1e1e"/>
    <path id="Path_1168" data-name="Path 1168" d="M88.719,70.83l-7.8.025L77.459,83.741l7.019-.261.267-.957c.79-2.813,2.014-6.495,3.279-9.846Z" transform="translate(-48.377 -56.766)" fill="#1e1e1e"/>
    <path id="Path_1169" data-name="Path 1169" d="M99.693,71.806c0,.015-.476,1.564-2.141,5.682a21.851,21.851,0,0,1-5.974,8.336,24.58,24.58,0,0,1-6.739,4.2l-.955.425.989,6.178,1.5-.467a29.15,29.15,0,0,0,19.132-17.8l2.8-7.461-8.32-.065Z" transform="translate(-46.819 -56.766)" fill="#1e1e1e"/>
  </g>
  <g id="Group_1679" data-name="Group 1679" transform="translate(0 5.022)">
    <path id="Path_825" data-name="Path 825" d="M104.826,19.505H81.75c.576,4.367,6.761,6.561,14.971,6.561h17.858c8.261,0,15.894-2.193,19.342-6.561H104.826Z" transform="translate(-81.703 8.768)" fill="#0082ff"/>
    <path id="Path_826" data-name="Path 826" d="M82.056,20.125a6.1,6.1,0,0,0-.291,2.734h23.076c-3.828,0-6.2-2.369-5.2-5.346l1.8-5.466H84.7Z" transform="translate(-81.717 5.415)" fill="#ff896c"/>
    <path id="Path_827" data-name="Path 827" d="M110.547,17.391l-.08.122c-.939,2.976-4.821,5.344-8.649,5.344H124.9a8.917,8.917,0,0,0,1.509-2.732l1.715-5.284a6.056,6.056,0,0,0,.281-2.795H105.348c3.825,0,6.13,2.429,5.2,5.344" transform="translate(-72.682 5.415)" fill="#eb3600"/>
    <path id="Path_828" data-name="Path 828" d="M110.4,6.561h22.473a5.008,5.008,0,0,0,4.325-3.28c.581-1.822-.412-3.28-2.234-3.28h-28.3C96.818,0,87.842,3.1,85.805,9.294l-.575,1.761h16.888c1.361-2.551,4.814-4.495,8.277-4.495" transform="translate(-80.139 0)" fill="#3223b3"/>
    <path id="Path_829" data-name="Path 829" d="M109.506,14.034l2.019-6.407H85.879l-2.095,6.407Z" transform="translate(-80.789 3.428)" fill="#e04ea0"/>
    <path id="Path_830" data-name="Path 830" d="M128.511,14.034c-.7-4.267-6.848-6.407-15.013-6.407h-9.95l-2.019,6.407Z" transform="translate(-72.812 3.429)" fill="#00ad00"/>
  </g>
</svg>
