<svg xmlns="http://www.w3.org/2000/svg" xmlns:xlink="http://www.w3.org/1999/xlink" width="501.883" height="204.245" viewBox="0 0 501.883 204.245">
  <defs>
    <clipPath id="clip-path">
      <rect id="Rectangle_1298" data-name="Rectangle 1298" width="501.883" height="204.245" fill="#fff"/>
    </clipPath>
  </defs>
  <g id="Group_1546" data-name="Group 1546" transform="translate(0 -0.001)">
    <g id="Group_1545" data-name="Group 1545" transform="translate(0 0)" clip-path="url(#clip-path)">
      <path id="Path_921" data-name="Path 921" d="M81.444,9.317H35.9c1.132,8.618,13.338,12.948,29.544,12.948h35.246c16.3,0,31.371-4.33,38.174-12.948H81.444Z" transform="translate(179.122 46.48)" fill="#0082ff"/>
      <path id="Path_922" data-name="Path 922" d="M36.553,21.7a11.931,11.931,0,0,0-.569,5.4H81.525c-7.552,0-12.236-4.677-10.259-10.553L74.823,5.755H41.769Z" transform="translate(179.041 28.709)" fill="#ff896c"/>
      <path id="Path_923" data-name="Path 923" d="M62.718,16.3l-.156.24c-1.857,5.875-9.517,10.547-17.075,10.547H91.046a17.637,17.637,0,0,0,2.977-5.39l3.384-10.427a11.874,11.874,0,0,0,.557-5.516H52.452c7.552,0,12.1,4.791,10.265,10.547" transform="translate(226.937 28.709)" fill="#eb3600"/>
      <path id="Path_924" data-name="Path 924" d="M87.231,12.948h44.355c3.474,0,7.271-2.875,8.534-6.474C141.271,2.881,139.312,0,135.713,0H79.853C60.436,0,42.721,6.115,38.7,18.344l-1.138,3.474H70.893c2.689-5.031,9.5-8.87,16.338-8.87" transform="translate(187.409 -0.003)" fill="#3223b3"/>
      <path id="Path_925" data-name="Path 925" d="M87.642,16.286,91.631,3.644H41.011L36.873,16.286Z" transform="translate(183.961 18.175)" fill="#e04ea0"/>
      <path id="Path_926" data-name="Path 926" d="M98.6,16.286C97.226,7.871,85.086,3.643,68.976,3.643H49.338L45.349,16.286Z" transform="translate(226.249 18.172)" fill="#00ad00"/>
      <path id="Path_927" data-name="Path 927" d="M57.129,52.517c-.611-5.222-3.51-9.606-8.612-13.038C43.941,36.418,38.054,34.454,31,33.627l6.648-17.26-14.122-.054L.652,76.587H14.924L28.381,40.569a15.426,15.426,0,0,1,8.271,4.887A14.107,14.107,0,0,1,40.1,53.469Z" transform="translate(3.253 81.384)" fill="#fff"/>
      <path id="Path_928" data-name="Path 928" d="M20.051,81.527H0L24.92,15.863l19.9.072-6.84,17.758a39.837,39.837,0,0,1,15.29,5.8c5.791,3.887,9.079,8.918,9.792,14.961l.323,2.845L40.911,58.547l-.246-2.575a11.438,11.438,0,0,0-2.809-6.522,12.2,12.2,0,0,0-4.594-3.288ZM7.816,76.137h8.492L29.945,39.628l2.324.563a17.993,17.993,0,0,1,9.666,5.738A16.948,16.948,0,0,1,45.6,52.887l11.475-.641a16.492,16.492,0,0,0-6.8-8.277c-4.2-2.821-9.7-4.642-16.332-5.42L30.5,38.136,36.982,21.3l-8.337-.03Z" transform="translate(0 79.138)" fill="#fff"/>
      <path id="Path_929" data-name="Path 929" d="M47.419,16.323,45.592,20.6H25.319l-2.983,8.475H42.406L24.595,76.465H39.208L57.025,29.073H77.55L81.233,20.6H60.212L61.7,16.323Z" transform="translate(111.44 81.432)" fill="#fff"/>
      <path id="Path_930" data-name="Path 930" d="M44.244,81.405H23.875L41.692,34.014H21.7l4.881-13.865h20.4l1.821-4.276H68.673l-1.491,4.276H88.515L82.484,34.014H62.061Zm-12.583-5.39h8.852L58.33,28.624H78.95l1.342-3.084h-20.7l1.491-4.276H52.365l-1.827,4.276H30.4l-1.084,3.084H49.472Z" transform="translate(108.268 79.188)" fill="#fff"/>
      <path id="Path_931" data-name="Path 931" d="M35.612,19.9l-2.887,7.822c-2.947,7.84-5.576,13.487-7.834,16.787a19.643,19.643,0,0,1-5.863,5.678v5.678c10.936-3.929,19.363-13.607,25.058-28.753L46.769,19.9Z" transform="translate(94.932 99.279)" fill="#fff"/>
      <path id="Path_932" data-name="Path 932" d="M18.577,61.954V50.946l1.264-.8a16.883,16.883,0,0,0,5.061-4.9c2.156-3.156,4.689-8.606,7.546-16.224l3.534-9.576H52.888L48.864,30.29c-6,15.937-14.967,26.148-26.675,30.365Zm5.4-8.1V54c8.427-4.378,15.1-12.972,19.842-25.591l1.318-3.569h-5.39L37.5,30.907c-3.012,8.031-5.744,13.871-8.133,17.362a22.126,22.126,0,0,1-5.39,5.588" transform="translate(92.682 97.034)" fill="#fff"/>
      <path id="Path_933" data-name="Path 933" d="M45.549,19.9H34.188l-2.575,6.348C25.845,41.6,27.121,51.522,35.4,55.739l3.378-5.264a6.653,6.653,0,0,1-1.491-5.181c.222-3.228,1.833-8.846,4.785-16.7Z" transform="translate(140.034 99.279)" fill="#fff"/>
      <path id="Path_934" data-name="Path 934" d="M38.618,61.493l-2.174-1.1c-9.708-4.947-11.421-16-5.085-32.85l3.288-8.091H51.794L46.847,31.835c-3.54,9.421-4.462,13.847-4.606,15.889a3.952,3.952,0,0,0,.838,3.222l1.33,1.527ZM38.271,24.84l-1.893,4.665c-4.618,12.284-4.456,20.608.485,24.747l.97-1.509a9.816,9.816,0,0,1-.964-5.414c.246-3.522,1.863-9.235,4.953-17.44L43.84,24.84Z" transform="translate(137.772 97.034)" fill="#fff"/>
      <path id="Path_935" data-name="Path 935" d="M91.306,16.339H47.861a116.049,116.049,0,0,1-7.6,15.494,58.748,58.748,0,0,1-7.612,10.5l2.246,6.013A50.754,50.754,0,0,0,49.3,37.1a67.6,67.6,0,0,0,9.235-12.29H73.087L69.3,34.911c-6,15.931-17.386,27.705-33.892,35.018l1.084,6.456A80.5,80.5,0,0,0,66.343,60.071,64.258,64.258,0,0,0,84.706,34.15Z" transform="translate(162.888 81.513)" fill="#fff"/>
      <path id="Path_936" data-name="Path 936" d="M36.931,82.1,35,70.551l1.91-.844c15.811-7,26.729-18.273,32.467-33.5l2.42-6.45H62.654a71.221,71.221,0,0,1-8.8,11.445A53.542,53.542,0,0,1,38.68,53L36,54.327,32.128,43.912l1.2-1.222a56.948,56.948,0,0,0,7.223-10,114.58,114.58,0,0,0,7.4-15.086l.671-1.713H97.774L89.827,37.324A66.94,66.94,0,0,1,70.71,64.346,83.265,83.265,0,0,1,39.872,81.206ZM41,73.761l.222,1.348A77.208,77.208,0,0,0,67.164,60.286a61.634,61.634,0,0,0,17.62-24.843L90.03,21.279H52.275a119.176,119.176,0,0,1-7.109,14.182,70.5,70.5,0,0,1-6.81,9.726l.569,1.539a51.532,51.532,0,0,0,10.99-9.211A65.388,65.388,0,0,0,58.8,25.705l.779-1.342H79.567L74.417,38.1C68.386,54.117,57.15,66.1,41,73.761" transform="translate(160.289 79.268)" fill="#fff"/>
      <path id="Path_937" data-name="Path 937" d="M71.375,23.01c-5.342-3.546-13.272-5.588-24.7-6.774l-2.42,8.013c8.744.473,17.554,1.9,24.124,4.079Z" transform="translate(220.801 80.999)" fill="#fff"/>
      <path id="Path_938" data-name="Path 938" d="M72.607,34.022l-2.108-.7a94.857,94.857,0,0,0-23.417-3.953l-3.42-.186L47.7,15.749l2.216.234c12.331,1.282,20.327,3.5,25.915,7.211l2.084,1.389Zm-21.824-9.8a101.389,101.389,0,0,1,19.285,3.324l.623-1.12c-4.384-2.258-10.577-3.821-19.117-4.839Z" transform="translate(217.832 78.57)" fill="#fff"/>
      <path id="Path_939" data-name="Path 939" d="M69.247,22.969C63.114,20.5,55.664,19.333,45.955,18.9l-2.533,8.067c9.786.138,16.446.114,23.393,1.593Z" transform="translate(216.635 94.27)" fill="#fff"/>
      <path id="Path_940" data-name="Path 940" d="M71.462,33.979l-2.156-.467C63.167,32.2,57.082,32.116,48.673,32l-5.863-.078,4.246-13.493,2.072.1c10.583.467,18.039,1.779,24.172,4.258l2.569,1.036ZM50.123,26.636c7.1.1,12.6.222,18.135,1.18l.425-.976c-4.671-1.5-10.313-2.4-17.728-2.827Z" transform="translate(213.582 91.95)" fill="#fff"/>
      <path id="Path_941" data-name="Path 941" d="M98.378,16.323C87.268,44.6,67.684,61.792,46.183,64.637L42.59,76.854c17.368-2.935,34.743-10.415,45.4-22.237,7.175-8,16.6-22.812,22.83-38.294Z" transform="translate(212.484 81.433)" fill="#fff"/>
      <path id="Path_942" data-name="Path 942" d="M41.956,82.477l5.3-18.045L49,64.2C69.943,61.444,88.647,44.016,99.032,17.58l.677-1.707h18.267l-1.491,3.7c-6.594,16.4-16.47,31.443-23.321,39.091C82.915,70.026,65.8,78.447,46.208,81.759Zm9.493-13.188-1.863,6.342C66.194,72.1,80.454,64.714,89.156,55.059c6.019-6.714,14.506-19.482,20.776-33.8h-6.57C92.4,47.879,73.189,65.648,51.449,69.289" transform="translate(209.321 79.188)" fill="#fff"/>
      <path id="Path_943" data-name="Path 943" d="M68.136,76.421a80.559,80.559,0,0,0,29.969-16.35A64.258,64.258,0,0,0,116.468,34.15l7.115-17.811H79.144a111.391,111.391,0,0,1-7.121,15.494,59.3,59.3,0,0,1-7.606,10.5l2.24,6.013a50.725,50.725,0,0,0,14.4-11.235A66.746,66.746,0,0,0,90.29,24.82h14.571l-3.8,10.092c-6,15.931-17.386,27.705-33.892,35.018Z" transform="translate(321.38 81.513)" fill="#fff"/>
      <path id="Path_944" data-name="Path 944" d="M68.542,82.14,66.8,70.539l1.875-.832c15.805-7,26.729-18.267,32.467-33.5l2.42-6.456H94.426a69.559,69.559,0,0,1-8.8,11.445A53.275,53.275,0,0,1,70.452,53l-2.677,1.324L63.894,43.918,65.1,42.7a57.8,57.8,0,0,0,7.223-10,111.093,111.093,0,0,0,6.917-15.1l.671-1.707h50.254l-8.582,21.5a66.888,66.888,0,0,1-19.093,26.957,83.248,83.248,0,0,1-30.963,16.9Zm4.2-8.361.2,1.348a77.175,77.175,0,0,0,26-14.841,61.561,61.561,0,0,0,17.614-24.843l5.654-14.164H83.58a104.5,104.5,0,0,1-6.642,14.194,70.245,70.245,0,0,1-6.816,9.714l.575,1.539a51.677,51.677,0,0,0,10.99-9.211,64.041,64.041,0,0,0,8.876-11.8l.773-1.348h20.021L106.189,38.1C100.152,54.129,88.9,66.125,72.74,73.779" transform="translate(318.771 79.268)" fill="#fff"/>
      <path id="Path_945" data-name="Path 945" d="M126.914,62.646c-1.731-3.593-6.019-10.157-10.062-12.565a79.609,79.609,0,0,0,16.069-26.07l2.767-7.672H94L91.95,24.82h25.735c-7.738,20.465-22.914,35.629-45.056,45.05l.832,6.618c13.679-4.39,25.489-10.637,35.15-18.6,3.725,4.336,5.672,9.942,6.959,15.314Z" transform="translate(362.35 81.513)" fill="#fff"/>
      <path id="Path_946" data-name="Path 946" d="M73.636,82.29l-1.5-11.864,1.881-.791c20.105-8.558,34.257-21.962,42.1-39.881H90.969l3.348-13.865h47.661l-4.085,11.283a82.312,82.312,0,0,1-14.649,24.771,41.835,41.835,0,0,1,8.534,11.78l.862,1.785L116.476,80.571l-1.084-4.486a38.312,38.312,0,0,0-4.821-12.122A109.873,109.873,0,0,1,76.733,81.3ZM78,73.773l.174,1.36a101.434,101.434,0,0,0,31.167-17.081l2.036-1.671,1.719,1.994a34.27,34.27,0,0,1,6.342,12.068l6.576-6.121c-1.94-3.432-5.24-7.983-8.091-9.678l-2.863-1.7,2.252-2.444a76.871,76.871,0,0,0,15.53-25.2l1.449-4.025H98.563l-.749,3.084h26.214l-1.383,3.647C114.853,48.613,99.838,64,78,73.773" transform="translate(359.906 79.268)" fill="#fff"/>
      <path id="Path_947" data-name="Path 947" d="M61.986,19.251,56.614,39.236l8.283-.3c1.581-5.642,3.995-12.912,6.558-19.716Z" transform="translate(282.451 95.892)" fill="#fff"/>
      <path id="Path_948" data-name="Path 948" d="M56.021,44.312l6.857-25.5,15.434-.048-1.383,3.653c-2.5,6.654-4.923,13.937-6.48,19.488L69.916,43.8Zm11-20.117-3.893,14.47,2.677-.1c1.282-4.36,2.935-9.379,4.737-14.38Z" transform="translate(279.492 93.637)" fill="#fff"/>
      <path id="Path_949" data-name="Path 949" d="M59.005,19.251,53.633,39.236l8.283-.3C63.5,33.3,65.911,26.025,68.474,19.221Z" transform="translate(267.578 95.892)" fill="#fff"/>
      <path id="Path_950" data-name="Path 950" d="M53.041,44.312l6.851-25.5,15.44-.048-1.383,3.653c-2.5,6.636-4.917,13.919-6.486,19.494L66.93,43.8ZM64.031,24.2l-3.887,14.47,2.671-.1c1.288-4.372,2.947-9.391,4.743-14.38Z" transform="translate(264.625 93.637)" fill="#fff"/>
      <path id="Path_951" data-name="Path 951" d="M57.316,64.073c18.051-5.606,30.293-18.027,36.15-33.617L97.658,19.3l-10.595-.078s-.9,3.042-4.312,11.481c-3.282,8.115-7.738,13.05-12.5,17.464a50.8,50.8,0,0,1-14.074,8.792Z" transform="translate(280.275 95.892)" fill="#fff"/>
      <path id="Path_952" data-name="Path 952" d="M57.637,69.832,55.679,57.6l1.893-.844a48.631,48.631,0,0,0,13.338-8.307c4.959-4.594,8.858-9.163,11.828-16.5,3.3-8.151,4.228-11.206,4.234-11.235l.575-1.946,16.476.126L98.477,33.67c-6.444,17.141-19.89,29.658-37.869,35.24Zm4.013-9.02.317,1.946A52.18,52.18,0,0,0,93.44,31.771l2.827-7.54-4.779-.042c-.623,1.785-1.767,4.893-3.755,9.786C84.2,42.719,79.318,48,74.575,52.4A51.484,51.484,0,0,1,61.65,60.812" transform="translate(277.786 93.637)" fill="#fff"/>
      <path id="Path_953" data-name="Path 953" d="M16.117,77.471c22.261-6.828,37.306-20.662,44.72-41.127l4.63-12.787,1.048-2.845H50.153l1.593-4.36-15.661-.036-1.6,4.4H18.5L11.26,40.591H25.8L29.91,29.307h18.9l-2.833,7.8a60.954,60.954,0,0,1-11.8,20.477A56.706,56.706,0,0,1,15.219,70.805Z" transform="translate(56.177 81.403)" fill="#fff"/>
      <path id="Path_954" data-name="Path 954" d="M17.079,83.231l-1.593-11.8,1.833-.826A54.414,54.414,0,0,0,35.4,58.023,58.647,58.647,0,0,0,46.659,38.439l1.515-4.186H35L30.9,45.536H10.617l9.2-25.268H35.8l1.6-4.4,21.4.048-1.593,4.354H73.6L66.579,39.517c-7.714,21.3-23.351,35.695-46.463,42.78Zm4.282-8.564.2,1.485c19.746-6.857,33.173-19.794,39.947-38.474l4.348-12.02H49.51L51.1,21.286l-9.924-.018-1.6,4.39H23.6L18.313,40.14h8.8l4.108-11.277H55.858L51.72,40.277A63.722,63.722,0,0,1,39.382,61.652,58.394,58.394,0,0,1,21.361,74.667" transform="translate(52.969 79.153)" fill="#fff"/>
      <path id="Path_955" data-name="Path 955" d="M47.112,30.633H19.975a3.088,3.088,0,0,0-2.635,1.9c-.4,1.06.126,1.9,1.15,1.9h8.732L22.551,46.4c-1.042,2.677.258,4.851,2.971,4.851A7.975,7.975,0,0,0,32.265,46.4l4.671-11.96h8.732a3.128,3.128,0,0,0,2.617-1.9c.413-1.054-.12-1.9-1.174-1.9" transform="translate(85.851 152.827)" fill="#fff"/>
      <path id="Path_956" data-name="Path 956" d="M48.737,30.633H38.388c-5.672,0-10.984,1.8-12.391,5.378L22.277,45.48c-1.4,3.587,2.515,5.384,8.217,5.384H40.844c5.672,0,10.978-1.8,12.379-5.384l3.683-9.469c1.4-3.581-2.5-5.378-8.169-5.378m-2.114,6.9-2.509,6.438c-.683,1.725-3.018,3.1-5.24,3.1h-3.48c-2.222,0-3.48-1.371-2.785-3.1l2.5-6.438c.653-1.725,3.018-3.1,5.24-3.1h3.48c2.222,0,3.468,1.372,2.791,3.1" transform="translate(109.727 152.827)" fill="#fff"/>
      <path id="Path_957" data-name="Path 957" d="M60.7,30.568a7.988,7.988,0,0,0-6.744,4.863l-1.479,3.755H40.971l1.479-3.755c1.03-2.677-.3-4.863-2.971-4.863a7.981,7.981,0,0,0-6.744,4.863l-4.39,11.289c-1.072,2.671.264,4.851,2.935,4.851a7.933,7.933,0,0,0,6.744-4.851l1.467-3.767H51.009l-1.437,3.767c-1.066,2.671.264,4.851,2.941,4.851a7.932,7.932,0,0,0,6.738-4.851l4.426-11.289c1.03-2.677-.3-4.863-2.971-4.863" transform="translate(139.569 152.503)" fill="#fff"/>
      <path id="Path_958" data-name="Path 958" d="M60.8,30.633H50.45c-5.672,0-10.984,1.8-12.391,5.378L34.339,45.48c-1.4,3.587,2.515,5.384,8.217,5.384H52.905c5.672,0,10.978-1.8,12.379-5.384l3.683-9.469c1.4-3.581-2.5-5.378-8.169-5.378m-2.114,6.9-2.5,6.438c-.689,1.725-3.024,3.1-5.246,3.1h-3.48c-2.222,0-3.48-1.371-2.791-3.1l2.509-6.438c.641-1.725,3.019-3.1,5.24-3.1h3.48c2.222,0,3.474,1.372,2.791,3.1" transform="translate(169.906 152.827)" fill="#fff"/>
      <path id="Path_959" data-name="Path 959" d="M71.1,30.9s-1.683.671-15.655,6.869a9.82,9.82,0,0,0-2.551,1.575l1.485-3.8c1.06-2.677-.264-4.863-2.935-4.863A7.921,7.921,0,0,0,44.7,35.55L40.271,46.839c-1.042,2.671.3,4.851,2.971,4.851a7.986,7.986,0,0,0,6.744-4.851l1.479-3.8a3.2,3.2,0,0,0,1.312,1.587c9.127,6.187,10.289,6.857,10.289,6.857,1.162.809,2.971.282,4.282-1.27,1.354-1.545,1.246-2.989.21-3.725,0,0-.886-.677-5.761-4.013a1.062,1.062,0,0,1-.287-1.27A2.229,2.229,0,0,1,62.8,39.916c7.456-3.42,8.894-4.013,8.894-4.013,1.635-.743,2.857-2.186,2.743-3.737-.132-1.545-1.545-2.03-3.336-1.264" transform="translate(199.148 152.384)" fill="#fff"/>
      <path id="Path_960" data-name="Path 960" d="M77.869,30.568a7.966,7.966,0,0,0-6.744,4.863l-3.456,8.864c-.689,1.725-3.024,3.09-5.24,3.09H58.943c-2.222,0-3.468-1.366-2.779-3.09l3.45-8.864c1.024-2.677-.264-4.863-2.983-4.863a7.988,7.988,0,0,0-6.744,4.863L45.839,45.8c-1.4,3.587,2.509,5.378,8.211,5.378H64.4c5.672,0,10.978-1.791,12.379-5.378l4.061-10.373c1.024-2.677-.264-4.863-2.971-4.863" transform="translate(227.268 152.503)" fill="#fff"/>
      <path id="Path_961" data-name="Path 961" d="M89.764,30.633H71.036c-5.7,0-11.026,1.8-12.421,5.378l-.485,1.276c-1.4,3.557,2.515,5.348,8.223,5.348h6.9c2.21,0,3.827.527,3.15,2.216-.653,1.719-2.659,2.216-4.875,2.216H56.207a3.028,3.028,0,0,0-2.617,1.9c-.437,1.048.084,1.893,1.138,1.893H73.462c5.708,0,11.014-1.791,12.415-5.384l.479-1.264c1.4-3.558-2.509-5.354-8.211-5.354H71.234c-2.21,0-3.821-.521-3.15-2.21.653-1.725,2.665-2.216,4.875-2.216h15.32a3.047,3.047,0,0,0,2.623-1.9c.437-1.054-.084-1.9-1.138-1.9" transform="translate(266.591 152.827)" fill="#fff"/>
      <path id="Path_962" data-name="Path 962" d="M71.125,30.568a7.988,7.988,0,0,0-6.744,4.863l-4.39,11.289c-1.072,2.671.264,4.851,2.941,4.851a7.932,7.932,0,0,0,6.738-4.851L74.1,35.431c1.03-2.677-.3-4.863-2.971-4.863" transform="translate(297.448 152.503)" fill="#fff"/>
      <path id="Path_963" data-name="Path 963" d="M94.841,30.568A7.936,7.936,0,0,0,88.1,35.431a7.1,7.1,0,0,1-5.48,3.7l-1.8.174-1.683-.174c-2.138-.216-3.24-1.97-2.587-3.7,1.06-2.677-.264-4.863-2.935-4.863a7.921,7.921,0,0,0-6.744,4.863c-.958,2.456.431,4.4,3.15,5.66-3.677,1.228-6.6,3.162-7.576,5.63-1.036,2.671.3,4.851,2.971,4.851a7.986,7.986,0,0,0,6.744-4.851c.647-1.725,3.138-3.486,5.462-3.689l1.8-.186,1.683.186c2.114.2,3.246,1.964,2.569,3.689-1.042,2.671.293,4.851,2.971,4.851a7.985,7.985,0,0,0,6.738-4.851c.952-2.467-.467-4.4-3.156-5.63,3.677-1.264,6.6-3.2,7.552-5.66,1.06-2.677-.269-4.863-2.941-4.863" transform="translate(309.798 152.503)" fill="#fff"/>
    </g>
  </g>
</svg>
