<svg xmlns="http://www.w3.org/2000/svg" width="187.065" height="21.503" viewBox="0 0 187.065 21.503">
  <g id="Group_1778" data-name="Group 1778" transform="translate(-755.253 -493.714)">
    <g id="Group_1414" data-name="Group 1414" transform="translate(755.253 495.687)">
      <path id="Path_825" data-name="Path 825" d="M94.557,19.505H81.75c.319,2.424,3.752,3.641,8.308,3.641h9.911c4.585,0,8.821-1.217,10.735-3.641H94.557Z" transform="translate(-81.724 -3.814)" fill="#0082ff"/>
      <path id="Path_826" data-name="Path 826" d="M81.905,16.53a3.387,3.387,0,0,0-.162,1.517H94.55c-2.125,0-3.441-1.314-2.886-2.967l1-3.034h-9.3Z" transform="translate(-81.717 -2.356)" fill="#ff896c"/>
      <path id="Path_827" data-name="Path 827" d="M106.662,15.013l-.044.068c-.521,1.652-2.676,2.966-4.8,2.966h12.81a4.948,4.948,0,0,0,.837-1.516l.952-2.932a3.361,3.361,0,0,0,.156-1.551h-12.8c2.123,0,3.4,1.348,2.886,2.966" transform="translate(-85.648 -2.356)" fill="#eb3600"/>
      <path id="Path_828" data-name="Path 828" d="M99.2,3.641h12.472a2.779,2.779,0,0,0,2.4-1.82A1.28,1.28,0,0,0,112.829,0H97.121C91.661,0,86.68,1.719,85.549,5.158l-.319.977H94.6A5.384,5.384,0,0,1,99.2,3.641" transform="translate(-82.405 0)" fill="#3223b3"/>
      <path id="Path_829" data-name="Path 829" d="M98.059,11.183,99.18,7.627H84.947l-1.162,3.556Z" transform="translate(-82.122 -1.491)" fill="#e04ea0"/>
      <path id="Path_830" data-name="Path 830" d="M116.5,11.183c-.388-2.368-3.8-3.556-8.332-3.556h-5.522l-1.121,3.556Z" transform="translate(-85.592 -1.491)" fill="#00ad00"/>
    </g>
    <g id="Group_1721" data-name="Group 1721" transform="translate(1838.709 538.27)">
      <path id="Path_1191" data-name="Path 1191" d="M197.584,62.335a1.456,1.456,0,0,1-.526,1,1.635,1.635,0,0,1-1.1.412,1.381,1.381,0,0,1-1.025-.419,1.217,1.217,0,0,1-.362-1,1.445,1.445,0,0,1,.533-1,1.642,1.642,0,0,1,1.1-.412,1.385,1.385,0,0,1,1.034.412,1.219,1.219,0,0,1,.354,1" transform="translate(-1105.487 -105.477)" fill="#1e1e1e"/>
      <path id="Path_1192" data-name="Path 1192" d="M199.736,66.209a1.456,1.456,0,0,1-.526,1,1.635,1.635,0,0,1-1.1.412,1.381,1.381,0,0,1-1.025-.419,1.217,1.217,0,0,1-.362-1,1.445,1.445,0,0,1,.533-1,1.642,1.642,0,0,1,1.1-.412,1.385,1.385,0,0,1,1.035.412,1.219,1.219,0,0,1,.354,1" transform="translate(-1106.125 -106.624)" fill="#1e1e1e"/>
      <path id="Path_1193" data-name="Path 1193" d="M137.689,70.458a21.291,21.291,0,0,1-8.225,6.648l4.817-12.756h-5.22l-6.45,17.263a1.223,1.223,0,0,0,.417,1.417,1.374,1.374,0,0,0,.84.293h.054l.2-.018a23.965,23.965,0,0,0,9.334-3.932,26.627,26.627,0,0,0,7.287-7.485Z" transform="translate(-1084.147 -106.493)" fill="#1e1e1e"/>
      <path id="Path_1194" data-name="Path 1194" d="M154.357,69.526l.578.192,1.459-2.588-.573-.379c-1.531-1.018-3.723-1.627-7.106-1.979l-.608-.063-1.111,3.684.939.051a26.028,26.028,0,0,1,6.422,1.082" transform="translate(-1091.395 -106.599)" fill="#1e1e1e"/>
      <path id="Path_1195" data-name="Path 1195" d="M163.865,65h-5.011l-.184.469c-2.849,7.248-7.978,12.028-13.722,12.785l-.476.064-1.456,4.947,1.167-.2c5.372-.907,10.066-3.217,12.877-6.334a39.968,39.968,0,0,0,6.4-10.718Z" transform="translate(-1090.217 -106.685)" fill="#1e1e1e"/>
      <path id="Path_1196" data-name="Path 1196" d="M173.734,64.856l-.185.469a30.452,30.452,0,0,1-1.9,4.138,15.621,15.621,0,0,1-1.982,2.743l-.328.335L170.4,75.4l.734-.362a13.376,13.376,0,0,0,3.044-2.13,18.44,18.44,0,0,1,3.129,1.6,16.713,16.713,0,0,1-6.657,5.113l-.514.227.472,3.183.82-.246a22.833,22.833,0,0,0,8.491-4.633,18.347,18.347,0,0,0,5.237-7.393l2.354-5.9Zm3.038,5.184c.336-.453.655-.912.942-1.381h2.509l-.666,1.767c-.144.382-.3.752-.47,1.116a13.1,13.1,0,0,0-2.314-1.5" transform="translate(-1098.016 -106.643)" fill="#1e1e1e"/>
      <path id="Path_1206" data-name="Path 1206" d="M207.148,78.005H193.224l1.552-3.323H208.7Z" transform="translate(-1105.091 -109.554)" fill="#1e1e1e"/>
      <path id="Path_1207" data-name="Path 1207" d="M119.666,65.2h-7.193l.88-2.487h-5.144l-.9,2.487h-4.4l-1.3,3.568H106l-1.366,3.719c-1.343,3.654-2.2,6.032-3.994,7.063l-.791.03.368,2.927.772.108.108-.039.04-.013c4.337-1.511,6.74-4.84,8.6-9.9l1.432-3.9h2.1l-3.412,9.291a2.559,2.559,0,0,1-1.907,1.723l-.041.015-.112.039,1.044,2.885.072-.008a7.964,7.964,0,0,0,2.915-.866,6.235,6.235,0,0,0,3.082-3.476Z" transform="translate(-1077.426 -106.008)" fill="#1e1e1e"/>
      <path id="Path_1214" data-name="Path 1214" d="M9.384,73.009a3.47,3.47,0,0,1,1.3.926,3.24,3.24,0,0,1,.794,1.842l.068.728,6.345-.355-.094-.8a5.82,5.82,0,0,0-2.764-4.221,11.226,11.226,0,0,0-4.315-1.635l1.931-5.011L7.03,64.459,0,82.989H5.656Z" transform="translate(-1047.846 -106.525)" fill="#1e1e1e"/>
      <path id="Path_1215" data-name="Path 1215" d="M52.721,82.974h5.747L63.5,69.6H69.26l1.7-3.912h-6.02l.42-1.207h-5.6l-.514,1.207H53.486L52.108,69.6h5.64Z" transform="translate(-1063.284 -106.532)" fill="#1e1e1e"/>
      <path id="Path_1216" data-name="Path 1216" d="M46.392,80.353a4.8,4.8,0,0,1-1.429,1.384l-.355.224v3.1l1.018-.366c3.3-1.189,5.835-4.07,7.526-8.565l1.137-3.06H49.517l-1,2.7a23.55,23.55,0,0,1-2.129,4.578" transform="translate(-1061.061 -109.077)" fill="#1e1e1e"/>
      <path id="Path_1217" data-name="Path 1217" d="M73.13,73.074H68.29l-.927,2.284c-1.785,4.754-1.3,7.871,1.438,9.267l.613.312,1.632-2.547-.376-.43a1.122,1.122,0,0,1-.234-.909,18.44,18.44,0,0,1,1.3-4.484Z" transform="translate(-1067.49 -109.077)" fill="#1e1e1e"/>
      <path id="Path_1218" data-name="Path 1218" d="M81.8,64.522l-.189.483a31.981,31.981,0,0,1-2.088,4.258,16.111,16.111,0,0,1-2.039,2.821l-.338.345,1.1,2.939L78.995,75a15.055,15.055,0,0,0,4.282-3.333,20.02,20.02,0,0,0,2.483-3.228h2.578l-.684,1.82A16.473,16.473,0,0,1,78.5,79.709l-.54.239L78.5,83.2l.828-.251a23.508,23.508,0,0,0,8.7-4.757,18.89,18.89,0,0,0,5.395-7.623l2.241-6.051Z" transform="translate(-1070.701 -106.544)" fill="#1e1e1e"/>
      <path id="Path_1219" data-name="Path 1219" d="M32.373,69.655h3.716l-.429,1.182a16.462,16.462,0,0,1-3.176,5.525,15.313,15.313,0,0,1-5.1,3.548l-.518.232.449,3.331.856-.263c6.523-2,10.933-6.061,13.11-12.073l1.978-5.43H38.64l.449-1.227-6.039-.013-.45,1.241H28.088l-2.594,7.13h5.719Z" transform="translate(-1055.399 -106.528)" fill="#1e1e1e"/>
    </g>
  </g>
</svg>
