<svg xmlns="http://www.w3.org/2000/svg" width="179.467" height="20.694" viewBox="0 0 179.467 20.694">
  <g id="Group_1729" data-name="Group 1729" transform="translate(-1008.896 -494.523)">
    <g id="Group_1698" data-name="Group 1698" transform="translate(1008.896 494.289)">
      <g id="Group_1414" data-name="Group 1414" transform="translate(0 1.596)">
        <path id="Path_825" data-name="Path 825" d="M94.557,19.505H81.75c.319,2.424,3.752,3.641,8.308,3.641h9.911c4.585,0,8.821-1.217,10.735-3.641H94.557Z" transform="translate(-81.724 -3.814)" fill="#0082ff"/>
        <path id="Path_826" data-name="Path 826" d="M81.905,16.53a3.387,3.387,0,0,0-.162,1.517H94.55c-2.125,0-3.441-1.314-2.886-2.967l1-3.034h-9.3Z" transform="translate(-81.717 -2.356)" fill="#ff896c"/>
        <path id="Path_827" data-name="Path 827" d="M106.662,15.013l-.044.068c-.521,1.652-2.676,2.966-4.8,2.966h12.81a4.948,4.948,0,0,0,.837-1.516l.952-2.932a3.361,3.361,0,0,0,.156-1.551h-12.8c2.123,0,3.4,1.348,2.886,2.966" transform="translate(-85.648 -2.356)" fill="#eb3600"/>
        <path id="Path_828" data-name="Path 828" d="M99.2,3.641h12.472a2.779,2.779,0,0,0,2.4-1.82A1.28,1.28,0,0,0,112.829,0H97.121C91.661,0,86.68,1.719,85.549,5.158l-.319.977H94.6A5.384,5.384,0,0,1,99.2,3.641" transform="translate(-82.405 0)" fill="#3223b3"/>
        <path id="Path_829" data-name="Path 829" d="M98.059,11.183,99.18,7.627H84.947l-1.162,3.556Z" transform="translate(-82.122 -1.491)" fill="#e04ea0"/>
        <path id="Path_830" data-name="Path 830" d="M116.5,11.183c-.388-2.368-3.8-3.556-8.332-3.556h-5.522l-1.121,3.556Z" transform="translate(-85.592 -1.491)" fill="#00ad00"/>
      </g>
    </g>
    <g id="Group_1720" data-name="Group 1720" transform="translate(2034.967 600)">
      <path id="Path_1197" data-name="Path 1197" d="M221.06,2.419a2.488,2.488,0,0,1-.9,1.715,2.791,2.791,0,0,1-1.888.7,2.357,2.357,0,0,1-1.752-.717,2.075,2.075,0,0,1-.619-1.7A2.47,2.47,0,0,1,216.813.7a2.81,2.81,0,0,1,1.874-.7,2.369,2.369,0,0,1,1.767.7,2.085,2.085,0,0,1,.605,1.714m-2.5-.93a1.017,1.017,0,0,0-.7.279.974.974,0,0,0-.339.652.813.813,0,0,0,.227.651.854.854,0,0,0,.656.279,1.049,1.049,0,0,0,.732-.279.972.972,0,0,0,.339-.651.82.82,0,0,0-.228-.652.893.893,0,0,0-.684-.279" transform="translate(-1094.55 -105.477)" fill="#1e1e1e"/>
      <path id="Path_1198" data-name="Path 1198" d="M245.383,10.538a3.5,3.5,0,0,1,1.307.934,3.275,3.275,0,0,1,.8,1.858l.069.734,6.4-.358-.1-.81a5.867,5.867,0,0,0-2.786-4.257,11.324,11.324,0,0,0-4.351-1.65l1.638-4.418L242.7,2.551,235.92,20.6h5.7Z" transform="translate(-1100.561 -106.242)" fill="#1e1e1e"/>
      <path id="Path_1199" data-name="Path 1199" d="M188.653,21.343h5.8L199.52,7.858h5.811l1.715-3.944h-6.071l.465-1.34h-5.651l-.559,1.34h-5.806l-1.389,3.944h5.688Z" transform="translate(-1086.189 -106.249)" fill="#1e1e1e"/>
      <path id="Path_1200" data-name="Path 1200" d="M182.229,18.8a4.833,4.833,0,0,1-1.441,1.395l-.358.226v3.13l1.027-.369c3.332-1.2,5.884-4.1,7.59-8.638l1.146-3.086h-4.812l-1,2.725a23.766,23.766,0,0,1-2.147,4.616" transform="translate(-1083.906 -108.916)" fill="#1e1e1e"/>
      <path id="Path_1201" data-name="Path 1201" d="M209.313,11.461h-4.881l-.935,2.3c-1.8,4.794-1.313,7.938,1.45,9.345l.618.316,1.646-2.568-.379-.434a1.136,1.136,0,0,1-.236-.917,18.653,18.653,0,0,1,1.308-4.522Z" transform="translate(-1090.511 -108.916)" fill="#1e1e1e"/>
      <path id="Path_1202" data-name="Path 1202" d="M162.324,6.519h7.155c-2.231,5.1-6.256,8.911-11.978,11.346l-.533.227.424,3.373.88-.282a31.271,31.271,0,0,0,9.63-4.932,10.818,10.818,0,0,1,1.37,3.448l.305,1.279,4.605-4.288-.245-.508a12.046,12.046,0,0,0-2.431-3.35,23.37,23.37,0,0,0,4.169-7.049l1.16-3.21H163.277Z" transform="translate(-1076.865 -106.249)" fill="#1e1e1e"/>
      <path id="Path_1203" data-name="Path 1203" d="M225.3,15.779l.15-.539c.44-1.572,1.13-3.645,1.847-5.545l.391-1.041-4.392.014-1.95,7.258Z" transform="translate(-1096.188 -108.074)" fill="#1e1e1e"/>
      <path id="Path_1204" data-name="Path 1204" d="M220.431,8.655l-4.392.014-1.95,7.258,3.954-.147.15-.539c.445-1.584,1.134-3.658,1.847-5.546Z" transform="translate(-1094.009 -108.074)" fill="#1e1e1e"/>
      <path id="Path_1205" data-name="Path 1205" d="M229.419,9.2c0,.008-.269.881-1.207,3.2a12.308,12.308,0,0,1-3.365,4.7,13.84,13.84,0,0,1-3.8,2.363l-.539.239.557,3.48.845-.263a16.418,16.418,0,0,0,10.776-10.026l1.58-4.2-4.686-.036Z" transform="translate(-1095.937 -108.074)" fill="#1e1e1e"/>
      <path id="Path_1208" data-name="Path 1208" d="M69.614,11.054a3.451,3.451,0,0,1,1.288.921,3.223,3.223,0,0,1,.789,1.832l.068.724,6.31-.353-.094-.8a5.789,5.789,0,0,0-2.748-4.2,11.172,11.172,0,0,0-4.292-1.626l1.92-4.983-5.584-.021L60.282,20.979h5.625Z" transform="translate(-1047.846 -106.242)" fill="#1e1e1e"/>
      <path id="Path_1209" data-name="Path 1209" d="M113,20.964h5.716l5-13.3h5.731l1.692-3.891h-5.987l.418-1.2H120l-.512,1.2H113.76l-1.37,3.891H118Z" transform="translate(-1063.485 -106.249)" fill="#1e1e1e"/>
      <path id="Path_1210" data-name="Path 1210" d="M106.665,18.405a4.778,4.778,0,0,1-1.421,1.376l-.353.223v3.087l1.012-.364c3.287-1.183,5.8-4.047,7.485-8.518l1.131-3.043h-4.746l-.991,2.687a23.42,23.42,0,0,1-2.117,4.553" transform="translate(-1061.234 -108.828)" fill="#1e1e1e"/>
      <path id="Path_1211" data-name="Path 1211" d="M133.375,11.166h-4.814l-.922,2.271c-1.776,4.728-1.295,7.828,1.43,9.216l.61.311,1.623-2.533L130.928,20a1.116,1.116,0,0,1-.232-.9,18.339,18.339,0,0,1,1.29-4.46Z" transform="translate(-1067.747 -108.828)" fill="#1e1e1e"/>
      <path id="Path_1212" data-name="Path 1212" d="M142.056,2.614l-.188.481a31.807,31.807,0,0,1-2.077,4.234,16.022,16.022,0,0,1-2.027,2.806l-.337.343,1.09,2.923.75-.37a14.972,14.972,0,0,0,4.259-3.315A19.911,19.911,0,0,0,146,6.505h2.564l-.68,1.81a16.383,16.383,0,0,1-9.107,9.4l-.537.237.543,3.239.823-.25a23.378,23.378,0,0,0,8.654-4.731,18.786,18.786,0,0,0,5.365-7.581l2.229-6.017Z" transform="translate(-1071 -106.261)" fill="#1e1e1e"/>
      <path id="Path_1213" data-name="Path 1213" d="M92.618,7.719h3.7l-.427,1.176a16.372,16.372,0,0,1-3.158,5.495,15.229,15.229,0,0,1-5.072,3.529l-.515.231.447,3.313.852-.262c6.487-1.989,10.873-6.028,13.038-12.006l1.967-5.4H98.85L99.3,2.573,93.291,2.56l-.448,1.234H88.357l-2.58,7.091h5.688Z" transform="translate(-1055.498 -106.245)" fill="#1e1e1e"/>
    </g>
  </g>
</svg>
