<svg xmlns="http://www.w3.org/2000/svg" width="139.463" height="21.079" viewBox="0 0 139.463 21.079">
  <g id="akita" transform="translate(-176.558 -380.098)">
    <g id="Group_1405" data-name="Group 1405" transform="translate(176.709 380.248)">
      <path id="Path_831" data-name="Path 831" d="M8.91,35.115c.172,0,.24.093.2.284L7.908,41A16.821,16.821,0,0,1,5.2,47.243,10,10,0,0,1,.87,50.966a.164.164,0,0,1-.108.026.166.166,0,0,1-.145-.053.182.182,0,0,1-.084-.205l.189-.883a.376.376,0,0,1,.121-.209A8.431,8.431,0,0,0,3.18,46.968a21.12,21.12,0,0,0,1.7-5.291L6.228,35.4a.308.308,0,0,1,.321-.284Zm6.8-3.763a18.349,18.349,0,0,1-1.955,5.5,12.681,12.681,0,0,1-4.274,3.968.5.5,0,0,1-.167.051.136.136,0,0,1-.119-.051c-.1-.035-.132-.112-.1-.234l.11-.517a.412.412,0,0,1,.115-.183,8.416,8.416,0,0,0,1.909-2.852,30.054,30.054,0,0,0,1.237-4.073H3.924c-.191,0-.266-.1-.225-.286l.284-1.325a.322.322,0,0,1,.348-.284H15.484c.189,0,.264.093.224.284" transform="translate(-0.527 -30.368)" fill="#151515"/>
      <path id="Path_832" data-name="Path 832" d="M8.91,35.115c.172,0,.24.093.2.284L7.908,41A16.821,16.821,0,0,1,5.2,47.243,10,10,0,0,1,.87,50.966a.164.164,0,0,1-.108.026.166.166,0,0,1-.145-.053.182.182,0,0,1-.084-.205l.189-.883a.376.376,0,0,1,.121-.209A8.431,8.431,0,0,0,3.18,46.968a21.12,21.12,0,0,0,1.7-5.291L6.228,35.4a.308.308,0,0,1,.321-.284Zm6.8-3.763a18.349,18.349,0,0,1-1.955,5.5,12.681,12.681,0,0,1-4.274,3.968.5.5,0,0,1-.167.051.136.136,0,0,1-.119-.051c-.1-.035-.132-.112-.1-.234l.11-.517a.412.412,0,0,1,.115-.183,8.416,8.416,0,0,0,1.909-2.852,30.054,30.054,0,0,0,1.237-4.073H3.924c-.191,0-.266-.1-.225-.286l.284-1.325a.322.322,0,0,1,.348-.284H15.484C15.672,31.068,15.748,31.161,15.707,31.352Z" transform="translate(-0.527 -30.368)" fill="#151515" stroke="#000" stroke-linecap="round" stroke-linejoin="round" stroke-width="0.3"/>
      <path id="Path_833" data-name="Path 833" d="M26.744,34.733H22.516q-.588,2.748-1.039,5.214h4.15c.191,0,.266.093.225.286l-.289,1.348a.306.306,0,0,1-.339.258H21.149q-1.08,5.776-1.5,9.312a.444.444,0,0,1-.123.211.3.3,0,0,1-.205.1h-.779a.19.19,0,0,1-.214-.207,57.513,57.513,0,0,1,.436-9.418H14.12c-.191,0-.267-.084-.231-.258l.289-1.348a.321.321,0,0,1,.346-.286H18.96q.316-2.852.7-5.214H15.639c-.187,0-.262-.1-.222-.286l.284-1.323a.324.324,0,0,1,.348-.286h4.019c.185-.865.319-1.489.4-1.869a.321.321,0,0,1,.343-.284H23.1c.185,0,.258.1.218.284l-.4,1.869h4.23c.189,0,.262.1.222.286l-.284,1.323a.322.322,0,0,1-.346.286" transform="translate(10.583 -30.686)" fill="#151515"/>
      <path id="Path_834" data-name="Path 834" d="M26.744,34.733H22.516q-.588,2.748-1.039,5.214h4.15c.191,0,.266.093.225.286l-.289,1.348a.306.306,0,0,1-.339.258H21.149q-1.08,5.776-1.5,9.312a.444.444,0,0,1-.123.211.3.3,0,0,1-.205.1h-.779a.19.19,0,0,1-.214-.207,57.513,57.513,0,0,1,.436-9.418H14.12c-.191,0-.267-.084-.231-.258l.289-1.348a.321.321,0,0,1,.346-.286H18.96q.316-2.852.7-5.214H15.639c-.187,0-.262-.1-.222-.286l.284-1.323a.324.324,0,0,1,.348-.286h4.019c.185-.865.319-1.489.4-1.869a.321.321,0,0,1,.343-.284H23.1c.185,0,.258.1.218.284l-.4,1.869h4.23c.189,0,.262.1.222.286l-.284,1.323A.322.322,0,0,1,26.744,34.733Z" transform="translate(10.583 -30.686)" fill="#151515" stroke="#000" stroke-linecap="round" stroke-linejoin="round" stroke-width="0.3"/>
      <path id="Path_835" data-name="Path 835" d="M40.258,31.352l-1.1,5.111a21.807,21.807,0,0,1-4.175,8.9,16.93,16.93,0,0,1-7.052,5.6.24.24,0,0,1-.24-.027.2.2,0,0,1-.092-.233l.178-.83a.338.338,0,0,1,.178-.234,15.552,15.552,0,0,0,6.9-8.222A6.562,6.562,0,0,0,30.783,40.1c-.172,0-.24-.086-.2-.26l.5-2.36c.049-.225.174-.321.372-.286a6.18,6.18,0,0,1,4.036,2.36q.333-1.063.638-2.49l.879-4.1H32.261a18.664,18.664,0,0,1-2.222,4.683,11.77,11.77,0,0,1-3.091,3.281.233.233,0,0,1-.258,0,.2.2,0,0,1-.134-.233l.152-.7a1.732,1.732,0,0,1,.277-.572A16.843,16.843,0,0,0,28.7,35.789a35.792,35.792,0,0,0,1.314-4.437.309.309,0,0,1,.322-.284h9.7c.189,0,.266.093.225.284" transform="translate(21.126 -30.368)" fill="#151515"/>
      <path id="Path_836" data-name="Path 836" d="M40.258,31.352l-1.1,5.111a21.807,21.807,0,0,1-4.175,8.9,16.93,16.93,0,0,1-7.052,5.6.24.24,0,0,1-.24-.027.2.2,0,0,1-.092-.233l.178-.83a.338.338,0,0,1,.178-.234,15.552,15.552,0,0,0,6.9-8.222A6.562,6.562,0,0,0,30.783,40.1c-.172,0-.24-.086-.2-.26l.5-2.36c.049-.225.174-.321.372-.286a6.18,6.18,0,0,1,4.036,2.36q.333-1.063.638-2.49l.879-4.1H32.261a18.664,18.664,0,0,1-2.222,4.683,11.77,11.77,0,0,1-3.091,3.281.233.233,0,0,1-.258,0,.2.2,0,0,1-.134-.233l.152-.7a1.732,1.732,0,0,1,.277-.572A16.843,16.843,0,0,0,28.7,35.789a35.792,35.792,0,0,0,1.314-4.437.309.309,0,0,1,.322-.284h9.7C40.221,31.068,40.3,31.161,40.258,31.352Z" transform="translate(21.126 -30.368)" fill="#151515" stroke="#000" stroke-linecap="round" stroke-linejoin="round" stroke-width="0.3"/>
    </g>
    <g id="Group_1404" data-name="Group 1404" transform="translate(254.244 387.515)">
      <path id="Path_844" data-name="Path 844" d="M11.25,53.21l-1.29,3.3a2.526,2.526,0,0,1-2.147,1.546c-.852,0-1.277-.694-.936-1.546l1.1-2.823c.218-.55-.183-.987-.9-.987h-1.1a1.838,1.838,0,0,0-1.667.987L3.2,56.515a2.528,2.528,0,0,1-2.147,1.546c-.852,0-1.275-.694-.936-1.546l1.292-3.3C1.854,52.065,3.536,51.5,5.351,51.5h3.3c1.8,0,3.05.57,2.6,1.715M6.8,55.373a2.151,2.151,0,0,1-1.827,1.31.867.867,0,0,1-.8-1.31A2.157,2.157,0,0,1,6,54.049c.718,0,1.083.6.793,1.325" transform="translate(0 -51.324)" fill="#151515"/>
      <path id="Path_845" data-name="Path 845" d="M16.784,57.668a1.073,1.073,0,0,1-1.363.4s-.37-.214-3.278-2.186a.99.99,0,0,1-.42-.5l-.471,1.209a2.539,2.539,0,0,1-2.145,1.546c-.852,0-1.277-.694-.947-1.546L9.57,53a2.522,2.522,0,0,1,2.147-1.548c.852,0,1.273.694.934,1.548l-.473,1.209a3.306,3.306,0,0,1,.815-.5c4.446-1.973,4.985-2.187,4.985-2.187.57-.245,1.017-.088,1.057.4a1.3,1.3,0,0,1-.87,1.189s-.456.191-2.831,1.277a.723.723,0,0,0-.412.416.34.34,0,0,0,.092.4c1.555,1.064,1.834,1.279,1.834,1.279.332.235.366.694-.064,1.185" transform="translate(6.697 -51.402)" fill="#151515"/>
      <path id="Path_846" data-name="Path 846" d="M20.376,52.975l-1.409,3.6a2.523,2.523,0,0,1-2.145,1.546c-.852,0-1.277-.694-.936-1.546l1.4-3.6a2.54,2.54,0,0,1,2.147-1.548c.852,0,1.275.694.945,1.548" transform="translate(13.119 -51.381)" fill="#151515"/>
      <path id="Path_847" data-name="Path 847" d="M30.273,52.1a.991.991,0,0,1-.834.6H26.658l-1.488,3.811a2.542,2.542,0,0,1-2.147,1.546c-.865,0-1.275-.694-.947-1.546L23.566,52.7H20.785c-.324,0-.491-.266-.365-.6a.975.975,0,0,1,.837-.6H29.9c.335,0,.5.267.374.6" transform="translate(16.955 -51.325)" fill="#151515"/>
      <path id="Path_848" data-name="Path 848" d="M38.78,53.21l-1.29,3.3a2.526,2.526,0,0,1-2.147,1.546c-.852,0-1.277-.694-.936-1.546l1.1-2.823c.218-.55-.183-.987-.9-.987h-1.1a1.838,1.838,0,0,0-1.667.987l-1.11,2.823a2.528,2.528,0,0,1-2.147,1.546c-.852,0-1.275-.694-.936-1.546l1.292-3.3c.445-1.145,2.127-1.715,3.943-1.715h3.3c1.8,0,3.05.57,2.6,1.715m-4.456,2.164a2.147,2.147,0,0,1-1.825,1.31.868.868,0,0,1-.8-1.31,2.162,2.162,0,0,1,1.832-1.325c.718,0,1.083.6.791,1.325" transform="translate(22.906 -51.324)" fill="#151515"/>
    </g>
  </g>
</svg>
